<svg width="400" height="400" viewBox="0 0 400 400" fill="none" xmlns="http://www.w3.org/2000/svg">
<path d="M197.562 1.19122C196.906 2.19435 196.375 2.53918 194.469 3.26018C188 5.61128 181.062 12.2257 177.281 19.6238C175.469 23.1661 175.031 24.6081 174.219 29.4671C173.094 36.0815 173 37.5235 173.188 44.9843C173.375 52.163 173.375 52.1944 172.594 54.0752C171.438 56.8025 171.312 57.9624 171.875 60.3762C173.094 65.6426 176.656 71.3793 182.156 76.8652C185.25 79.9686 186.219 81.1599 187.062 82.9154L188.125 85.0784L188.219 92.7273C188.344 101.285 188.156 102.665 186.531 105.956C183.5 112.006 174.938 116.426 162.5 118.339C160.781 118.589 156.438 118.966 152.812 119.154C148.125 119.373 145.656 119.655 144.219 120.063C138.125 121.85 131.406 128.245 127.594 135.893C125 141.066 124.312 144.922 124 155.799C123.812 163.354 124.094 167.586 125.219 174.138C125.625 176.646 125.906 179.875 126 183.856C126.156 190.094 125.938 192.351 124.562 198.746C123.5 203.793 123.25 206.959 123 218.652C122.719 230.94 122.656 231.411 120.781 233.95C118.719 236.771 109.906 241.975 92.0312 250.94C86.9688 253.48 81.875 255.893 80.6875 256.301C79.5312 256.677 75.375 257.743 71.4688 258.621C67.5625 259.498 63.6875 260.564 62.8125 260.972C61.2188 261.693 56.6562 262.382 53.4062 262.382C49.4375 262.382 44.2188 260.878 33.75 256.74C26.9062 254.044 23.8438 253.103 20.5312 252.79C19.375 252.665 18.1562 252.382 17.8125 252.163C16.9062 251.599 8.5625 249.53 7.1875 249.53C5.65625 249.53 4.15625 251.003 3.5 253.166C3.25 254.013 2.53125 255.549 1.90625 256.583C0.28125 259.248 0 260.47 0 264.734C0.03125 268.934 0.71875 272.633 2.53125 278.433C3.09375 280.313 3.71875 282.696 3.875 283.73C4.375 286.834 5.78125 288.746 8.375 289.875C11.8125 291.411 27.8125 291.975 34.0625 290.784C38.5625 289.937 43.1562 288.37 47.2812 286.207C49.2812 285.172 51 284.326 51.1562 284.326C51.2812 284.326 51.4062 284.984 51.4062 285.799C51.4062 288.464 52.3125 297.68 52.6562 298.589C52.8438 299.091 53.4688 300.031 54.0625 300.69C54.6562 301.348 56.3438 303.699 57.7812 305.925C60.6562 310.282 62.75 312.445 65.375 313.73C66.8125 314.451 67.1562 314.828 68.125 316.646C68.7188 317.774 69.3125 319.216 69.4375 319.843C69.6562 320.815 70.625 321.693 77.8125 327.492C91.5 338.464 97.1562 342.508 103.312 345.737C107.969 348.182 111.406 349.342 116.781 350.345C122.594 351.411 125.031 352.038 128.5 353.417C130.094 354.044 132.688 354.765 134.281 355.016C140.156 355.987 140.969 356.176 143.125 357.21C144.344 357.774 145.656 358.621 146.062 359.06C146.812 359.875 146.812 359.875 146.25 361.129C145.719 362.288 145.594 362.382 144.406 362.382C142.844 362.382 137.281 361.724 129.844 360.627C119.312 359.091 116.625 359.781 110.562 365.611C104.875 371.129 101.281 375.925 100.188 379.436C99.3438 382.194 99.1562 384.859 99.4688 389.53C99.75 393.386 99.8438 393.824 100.938 396.05C103.438 401.097 105.906 401.223 114.844 396.708C121.125 393.542 121.5 393.386 124.844 393.103C126.469 392.978 128.594 392.602 129.531 392.288C131.312 391.724 131.594 391.724 144.688 391.881C148.781 391.944 152.188 391.724 159.688 390.94C165.031 390.407 170.125 389.812 171.031 389.624C171.969 389.436 175.906 388.056 179.781 386.52C188.688 383.072 188.531 383.103 197.188 381.034C203.5 379.498 204.469 379.185 205.312 378.401C206.344 377.398 207.594 376.802 208.719 376.802C210.125 376.802 212.562 377.743 213.781 378.777C214.531 379.436 215.5 379.937 216.312 380.063C217.031 380.188 218.562 380.752 219.75 381.317C222.25 382.508 224.531 383.229 227.344 383.668C231.062 384.263 247.156 385.517 262.188 386.364C266.844 386.614 271.094 386.959 271.656 387.116C272.219 387.273 273.531 387.962 274.625 388.621C276.25 389.592 276.906 389.812 278.625 389.906C280.938 390.063 284.875 389.53 285.781 388.965C286.625 388.433 287.344 386.489 287.562 384.169C287.812 381.473 287.094 379.279 285.062 376.458C284.125 375.172 282.719 372.821 281.875 371.223C280.75 369.028 279.594 367.429 277.188 364.765C275.438 362.79 273.906 361.066 273.781 360.878C273.312 360.094 275.562 359.185 280.438 358.15C286.875 356.802 289.719 356.019 292.156 354.89C294 354.075 310.062 343.511 312.188 341.755C312.719 341.317 315.156 339.091 317.625 336.802C320.125 334.451 323.156 331.944 324.5 331.129C327.375 329.342 331.312 326.05 335.906 321.63C341.031 316.677 343.125 313.354 344.562 307.994C345.125 305.831 345.25 304.169 345.469 296.081C345.75 286.865 345.875 285.11 346.438 284.765C346.594 284.671 347.531 285.078 348.531 285.674C354.875 289.53 361.625 291.536 365.031 290.627C365.75 290.439 367.281 289.655 368.469 288.871L370.594 287.461L374.062 287.523C378.594 287.586 379.469 287.179 381.281 284.201C382.344 282.445 384.25 280.564 385 280.564C385.094 280.564 386.344 280 387.781 279.31C390.188 278.182 390.531 277.868 392.781 275.11C394.125 273.48 396.25 271.129 397.531 269.937L399.844 267.774V265.204V262.602L397.188 262.759C394.875 262.884 394.219 263.041 391.969 264.169C390.156 265.078 388.656 266.144 387.031 267.712C385.75 268.934 384.5 269.875 384.219 269.843C383.312 269.655 382.688 267.461 381.438 260.031C379.719 249.686 378.625 246.332 376.25 244.232C373.406 241.724 371.656 242.1 366.781 246.332C360.844 251.505 359.031 252.571 353.781 253.918C349.406 255.016 347.375 256.05 345.656 258.056C344.969 258.871 344.031 259.624 343.594 259.718C342.25 260 334.562 258.433 333.781 257.712C333.438 257.367 332.062 256.708 330.781 256.238C326.062 254.545 322.688 252.571 313.906 246.395C310.906 244.295 307.094 241.661 305.406 240.564C303.438 239.279 302.094 238.15 301.562 237.367C299.781 234.671 297.188 225.831 295.812 217.868C294.562 210.596 294.375 207.868 294.375 198.276C294.406 188.903 294.406 188.84 295.688 179.937C297.5 167.523 297.781 163.542 297.531 153.448C297.406 148.777 297.188 143.887 297 142.539C296.562 139.248 295.406 135.737 293.844 133.072C292.594 130.972 291.625 129.906 284.781 123.292L281.812 120.408L277.312 119.279C270.062 117.461 265.688 116.176 259.219 113.95C249.156 110.502 247.656 110.031 245.125 109.53C238.625 108.307 235.188 105.987 233.5 101.693C232.531 99.2163 232.281 95.5172 232.5 87.6175C232.625 83.4796 232.812 78.7774 232.969 77.1787C233.219 73.8244 233.156 73.9185 237.312 70.4389C240.844 67.4608 242.031 65.5486 243.156 61.0658C243.812 58.4326 244.031 56.7398 244.031 54.5141C244.062 51.536 244.031 51.4107 242.688 48.8088L241.344 46.1128L241.844 43.9185C242.406 41.3793 242.5 35.5486 242 32.7273C241.156 27.9624 239.062 23.1348 235.5 17.837C231.375 11.6928 231.25 11.536 224.875 6.83385C221.469 4.29467 220.094 3.57366 217.75 3.04075C215.969 2.63323 215.719 2.41379 215.156 0.846392L214.844 -3.29278e-06H206.625H198.375L197.562 1.19122ZM159.625 212.602C159.938 212.853 160.594 214.922 161.406 218.182C162.844 224.107 163.562 226.364 165.094 230.094C167.031 234.796 167.406 236.771 167.562 243.824C167.75 251.097 167.375 255.549 166.25 259.781C164.375 266.802 159.812 276.489 155.781 281.85C150.938 288.37 148.062 290.596 144.5 290.596C140.406 290.596 137.062 288.934 123.031 279.812L116.5 275.517L116.281 273.574C116.156 272.508 116 271.16 115.875 270.596L115.719 269.561L117.531 269.718C118.562 269.812 121.031 269.969 123.062 270.063C126.5 270.251 126.719 270.219 126.719 269.655C126.719 269.279 126.062 268.621 124.938 267.837L123.188 266.614L125.5 266.207C127.219 265.925 128.25 265.893 129.5 266.144C133.219 266.834 135.719 266.301 141.594 263.48C144.25 262.194 145.469 261.379 146.938 259.937C152.344 254.608 155.438 246.52 156.875 234.013C157.25 230.596 157.969 217.523 157.969 213.386C157.969 212.476 158.094 212.226 158.531 212.226C158.844 212.226 159.344 212.414 159.625 212.602ZM268.312 254.075C270.375 257.273 275.812 262.665 279.062 264.828C284.625 268.495 293.594 272.194 302.625 274.483L303.656 274.765L298.906 278.84C293.094 283.824 290.656 285.611 287.812 287.053C285.375 288.307 276.844 291.223 275.656 291.223C274.25 291.223 273.844 290.502 273.438 287.335C273.312 286.458 272.938 285.047 272.594 284.201C272 282.665 271.469 281.787 267.062 275.298C262.469 268.495 260.5 261.944 260 251.724C259.781 247.429 260.094 244.107 260.906 242.163L261.438 240.909L264.062 246.238C265.5 249.185 267.406 252.696 268.312 254.075ZM19.4375 263.793C21.4062 264.796 23.9062 267.398 23.9062 268.433C23.9062 269.592 21.5938 272.226 19.6875 273.292C18.8438 273.73 17.5625 272.978 16.25 271.16C15.0938 269.53 13.5938 266.677 13.5938 266.05C13.5938 265.329 16.3125 263.009 17.125 263.009C17.5312 263.009 18.5625 263.354 19.4375 263.793Z" fill="#F69F1C"/>
<path d="M196 3L198.5 0H214.5L231.5 12L241.5 27.5V37.5V47L244.5 51.5V55.5L241.5 67L232.5 75V100H188.5V84L182.5 76.5L174 65L171.5 57.5L174 53V27.5L181.5 13L188.5 6.5L196 3Z" fill="#FFAE33"/>
</svg>
