<svg width="946" height="575" viewBox="0 0 946 575" fill="none" xmlns="http://www.w3.org/2000/svg">
<g opacity="0.1">
<path opacity="0.1" d="M329.42 377.02C335.705 377.02 340.8 370.349 340.8 362.12C340.8 353.891 335.705 347.22 329.42 347.22C323.135 347.22 318.04 353.891 318.04 362.12C318.04 370.349 323.135 377.02 329.42 377.02Z" fill="#3F3D56"/>
<path opacity="0.1" d="M338.43 298.37C340.018 295.598 340.839 292.454 340.81 289.26C340.81 281.03 335.71 274.36 329.42 274.36C323.13 274.36 318 281.05 318 289.28C317.971 292.474 318.792 295.618 320.38 298.39C318.82 301.171 318.001 304.306 318.001 307.495C318.001 310.684 318.82 313.819 320.38 316.6C318.82 319.381 318.001 322.516 318.001 325.705C318.001 328.894 318.82 332.029 320.38 334.81C318.79 337.581 317.968 340.726 318 343.92C318 352.14 323.1 358.82 329.38 358.82C335.66 358.82 340.77 352.14 340.77 343.92C340.802 340.726 339.98 337.581 338.39 334.81C339.95 332.029 340.769 328.894 340.769 325.705C340.769 322.516 339.95 319.381 338.39 316.6C339.95 313.819 340.769 310.684 340.769 307.495C340.769 304.306 339.95 301.171 338.39 298.39L338.43 298.37Z" fill="#3F3D56"/>
<path opacity="0.1" d="M329.42 285.97C335.705 285.97 340.8 279.299 340.8 271.07C340.8 262.841 335.705 256.17 329.42 256.17C323.135 256.17 318.04 262.841 318.04 271.07C318.04 279.299 323.135 285.97 329.42 285.97Z" fill="#3F3D56"/>
<path opacity="0.1" d="M329.42 267.76C335.705 267.76 340.8 261.089 340.8 252.86C340.8 244.631 335.705 237.96 329.42 237.96C323.135 237.96 318.04 244.631 318.04 252.86C318.04 261.089 323.135 267.76 329.42 267.76Z" fill="#3F3D56"/>
<path opacity="0.1" d="M286.82 128.23C285.26 126.253 283.844 124.168 282.58 121.99L312.48 117.08L280.14 117.32C277.044 110.566 275.358 103.251 275.186 95.8231C275.014 88.3952 276.36 81.0102 279.14 74.12L322.53 96.63L282.53 67.21C286.249 60.6725 291.28 54.975 297.307 50.4756C303.334 45.9762 310.226 42.7722 317.551 41.065C324.876 39.3578 332.475 39.1844 339.87 40.5556C347.265 41.9268 354.296 44.8131 360.522 49.0328C366.748 53.2526 372.034 58.7147 376.047 65.0758C380.06 71.4368 382.714 78.5593 383.842 85.9954C384.969 93.4316 384.547 101.021 382.6 108.286C380.653 115.55 377.225 122.334 372.53 128.21C374.955 131.29 377.04 134.623 378.75 138.15L339.92 158.37L381.31 144.48C384.219 153.072 384.939 162.254 383.404 171.194C381.869 180.134 378.128 188.55 372.52 195.68C378.846 203.722 382.782 213.381 383.877 223.555C384.972 233.728 383.182 244.004 378.712 253.207C374.242 262.411 367.272 270.171 358.6 275.601C349.927 281.03 339.902 283.909 329.67 283.909C319.438 283.909 309.413 281.03 300.74 275.601C292.068 270.171 285.098 262.411 280.628 253.207C276.158 244.004 274.368 233.728 275.463 223.555C276.558 213.381 280.494 203.722 286.82 195.68C279.26 186.07 275.149 174.198 275.149 161.97C275.149 149.743 279.26 137.87 286.82 128.26V128.23Z" fill="#FCB544"/>
<path opacity="0.1" d="M384.19 161.94C384.21 174.171 380.097 186.049 372.52 195.65C378.846 203.692 382.782 213.351 383.877 223.525C384.972 233.698 383.182 243.973 378.712 253.177C374.242 262.381 367.272 270.141 358.6 275.571C349.927 281 339.902 283.879 329.67 283.879C319.438 283.879 309.413 281 300.74 275.571C292.068 270.141 285.098 262.381 280.628 253.177C276.158 243.973 274.368 233.698 275.463 223.525C276.558 213.351 280.494 203.692 286.82 195.65C279.51 186.37 384.19 155.82 384.19 161.94Z" fill="black"/>
</g>
<g opacity="0.1">
<path opacity="0.1" d="M462.28 341.39C466.98 341.39 470.79 336.407 470.79 330.26C470.79 324.113 466.98 319.13 462.28 319.13C457.58 319.13 453.77 324.113 453.77 330.26C453.77 336.407 457.58 341.39 462.28 341.39Z" fill="#3F3D56"/>
<path opacity="0.1" d="M469 282.63C470.183 280.561 470.794 278.214 470.77 275.83C470.77 269.68 466.96 264.69 462.27 264.69C457.58 264.69 453.76 269.69 453.76 275.83C453.734 278.215 454.349 280.563 455.54 282.63C454.373 284.708 453.76 287.052 453.76 289.435C453.76 291.818 454.373 294.162 455.54 296.24C454.373 298.318 453.76 300.662 453.76 303.045C453.76 305.428 454.373 307.772 455.54 309.85C454.349 311.917 453.734 314.265 453.76 316.65C453.76 322.8 457.57 327.79 462.27 327.79C466.97 327.79 470.77 322.79 470.77 316.65C470.794 314.266 470.183 311.919 469 309.85C470.158 307.769 470.765 305.426 470.765 303.045C470.765 300.663 470.158 298.321 469 296.24C470.158 294.159 470.765 291.816 470.765 289.435C470.765 287.053 470.158 284.711 469 282.63V282.63Z" fill="#3F3D56"/>
<path opacity="0.1" d="M462.28 273.35C466.98 273.35 470.79 268.367 470.79 262.22C470.79 256.073 466.98 251.09 462.28 251.09C457.58 251.09 453.77 256.073 453.77 262.22C453.77 268.367 457.58 273.35 462.28 273.35Z" fill="#3F3D56"/>
<path opacity="0.1" d="M462.28 259.74C466.98 259.74 470.79 254.757 470.79 248.61C470.79 242.463 466.98 237.48 462.28 237.48C457.58 237.48 453.77 242.463 453.77 248.61C453.77 254.757 457.58 259.74 462.28 259.74Z" fill="#3F3D56"/>
<path opacity="0.1" d="M430.44 155.48C429.272 154.005 428.213 152.448 427.27 150.82L449.62 147.15L425.45 147.33C423.131 142.284 421.866 136.817 421.732 131.265C421.598 125.713 422.598 120.192 424.67 115.04L457.1 131.87L427.19 109.87C429.987 105.018 433.754 100.795 438.257 97.4641C442.759 94.1332 447.899 91.7661 453.357 90.5105C458.815 89.2549 464.473 89.1378 469.978 90.1665C475.483 91.1951 480.717 93.3475 485.353 96.4893C489.989 99.631 493.928 103.695 496.924 108.427C499.919 113.159 501.907 118.457 502.764 123.992C503.62 129.526 503.327 135.178 501.901 140.594C500.476 146.01 497.95 151.074 494.48 155.47C496.29 157.774 497.849 160.265 499.13 162.9L470.13 177.97L501.06 167.59C503.233 174.011 503.77 180.872 502.622 187.552C501.475 194.233 498.68 200.522 494.49 205.85C499.224 211.858 502.171 219.076 502.993 226.68C503.816 234.284 502.482 241.967 499.144 248.848C495.805 255.729 490.597 261.532 484.114 265.591C477.632 269.651 470.138 271.804 462.49 271.804C454.842 271.804 447.348 269.651 440.866 265.591C434.383 261.532 429.175 255.729 425.836 248.848C422.498 241.967 421.164 234.284 421.987 226.68C422.809 219.076 425.756 211.858 430.49 205.85C424.84 198.669 421.769 189.797 421.769 180.66C421.769 171.523 424.84 162.651 430.49 155.47L430.44 155.48Z" fill="#FCB544"/>
<path opacity="0.1" d="M503.2 180.67C503.214 189.809 500.141 198.685 494.48 205.86C499.214 211.868 502.16 219.086 502.983 226.69C503.806 234.294 502.472 241.977 499.134 248.858C495.795 255.739 490.587 261.542 484.104 265.601C477.622 269.661 470.128 271.814 462.48 271.814C454.832 271.814 447.338 269.661 440.856 265.601C434.373 261.542 429.165 255.739 425.826 248.858C422.488 241.977 421.154 234.294 421.976 226.69C422.799 219.086 425.746 211.868 430.48 205.86C425 198.93 503.2 176.1 503.2 180.67Z" fill="black"/>
</g>
<g opacity="0.1">
<path opacity="0.1" d="M888.58 337.02C894.865 337.02 899.96 330.349 899.96 322.12C899.96 313.891 894.865 307.22 888.58 307.22C882.295 307.22 877.2 313.891 877.2 322.12C877.2 330.349 882.295 337.02 888.58 337.02Z" fill="#3F3D56"/>
<path opacity="0.1" d="M879.57 258.37C877.982 255.598 877.161 252.454 877.19 249.26C877.19 241.03 882.29 234.36 888.58 234.36C894.87 234.36 899.96 241.03 899.96 249.26C899.989 252.454 899.168 255.598 897.58 258.37C899.14 261.151 899.96 264.286 899.96 267.475C899.96 270.664 899.14 273.799 897.58 276.58C899.14 279.361 899.96 282.496 899.96 285.685C899.96 288.874 899.14 292.009 897.58 294.79C899.17 297.561 899.992 300.706 899.96 303.9C899.96 312.12 894.86 318.8 888.58 318.8C882.3 318.8 877.19 312.12 877.19 303.9C877.158 300.706 877.98 297.561 879.57 294.79C878.01 292.009 877.191 288.874 877.191 285.685C877.191 282.496 878.01 279.361 879.57 276.58C878.01 273.799 877.191 270.664 877.191 267.475C877.191 264.286 878.01 261.151 879.57 258.37V258.37Z" fill="#3F3D56"/>
<path opacity="0.1" d="M888.58 245.97C894.865 245.97 899.96 239.299 899.96 231.07C899.96 222.841 894.865 216.17 888.58 216.17C882.295 216.17 877.2 222.841 877.2 231.07C877.2 239.299 882.295 245.97 888.58 245.97Z" fill="#3F3D56"/>
<path opacity="0.1" d="M888.58 227.76C894.865 227.76 899.96 221.089 899.96 212.86C899.96 204.631 894.865 197.96 888.58 197.96C882.295 197.96 877.2 204.631 877.2 212.86C877.2 221.089 882.295 227.76 888.58 227.76Z" fill="#3F3D56"/>
<path opacity="0.1" d="M931.18 88.23C932.74 86.2532 934.157 84.168 935.42 81.99L905.52 77.08L937.86 77.32C940.956 70.5659 942.642 63.2511 942.814 55.8231C942.986 48.3952 941.64 41.0102 938.86 34.12L895.47 56.63L935.47 27.21C931.751 20.6725 926.72 14.975 920.693 10.4756C914.666 5.97615 907.774 2.77216 900.449 1.065C893.124 -0.642167 885.525 -0.81559 878.13 0.555629C870.735 1.92685 863.704 4.81306 857.478 9.03283C851.252 13.2526 845.966 18.7147 841.953 25.0758C837.94 31.4368 835.286 38.5593 834.158 45.9954C833.031 53.4316 833.453 61.0206 835.4 68.2855C837.347 75.5504 840.775 82.3341 845.47 88.21C843.045 91.2902 840.96 94.6228 839.25 98.15L878.08 118.37L836.69 104.48C833.781 113.072 833.061 122.254 834.596 131.194C836.131 140.134 839.872 148.55 845.48 155.68C839.154 163.722 835.218 173.381 834.123 183.555C833.028 193.728 834.818 204.004 839.288 213.207C843.758 222.411 850.728 230.171 859.4 235.601C868.073 241.03 878.098 243.909 888.33 243.909C898.562 243.909 908.587 241.03 917.26 235.601C925.932 230.171 932.902 222.411 937.372 213.207C941.842 204.004 943.632 193.728 942.537 183.555C941.442 173.381 937.506 163.722 931.18 155.68C938.74 146.07 942.851 134.198 942.851 121.97C942.851 109.743 938.74 97.8701 931.18 88.26V88.23Z" fill="#FCB544"/>
<path opacity="0.1" d="M833.81 121.94C833.79 134.171 837.903 146.049 845.48 155.65C839.154 163.692 835.218 173.351 834.123 183.525C833.028 193.698 834.818 203.973 839.288 213.177C843.758 222.381 850.728 230.141 859.4 235.571C868.073 241 878.098 243.879 888.33 243.879C898.562 243.879 908.587 241 917.26 235.571C925.932 230.141 932.902 222.381 937.372 213.177C941.842 203.973 943.632 193.698 942.537 183.525C941.442 173.351 937.506 163.692 931.18 155.65C938.49 146.37 833.81 115.82 833.81 121.94Z" fill="black"/>
</g>
<g opacity="0.1">
<path opacity="0.1" d="M778.72 335.39C783.42 335.39 787.23 330.407 787.23 324.26C787.23 318.113 783.42 313.13 778.72 313.13C774.02 313.13 770.21 318.113 770.21 324.26C770.21 330.407 774.02 335.39 778.72 335.39Z" fill="#3F3D56"/>
<path opacity="0.1" d="M772 276.63C770.817 274.561 770.206 272.214 770.23 269.83C770.23 263.68 774.04 258.69 778.73 258.69C783.42 258.69 787.24 263.69 787.24 269.83C787.266 272.215 786.651 274.563 785.46 276.63C786.627 278.708 787.24 281.052 787.24 283.435C787.24 285.818 786.627 288.162 785.46 290.24C786.627 292.318 787.24 294.662 787.24 297.045C787.24 299.428 786.627 301.772 785.46 303.85C786.651 305.917 787.266 308.265 787.24 310.65C787.24 316.8 783.43 321.79 778.73 321.79C774.03 321.79 770.23 316.79 770.23 310.65C770.206 308.266 770.817 305.919 772 303.85C770.842 301.769 770.235 299.426 770.235 297.045C770.235 294.663 770.842 292.321 772 290.24C770.842 288.159 770.235 285.816 770.235 283.435C770.235 281.053 770.842 278.711 772 276.63Z" fill="#3F3D56"/>
<path opacity="0.1" d="M778.72 267.35C783.42 267.35 787.23 262.367 787.23 256.22C787.23 250.073 783.42 245.09 778.72 245.09C774.02 245.09 770.21 250.073 770.21 256.22C770.21 262.367 774.02 267.35 778.72 267.35Z" fill="#3F3D56"/>
<path opacity="0.1" d="M778.72 253.74C783.42 253.74 787.23 248.757 787.23 242.61C787.23 236.463 783.42 231.48 778.72 231.48C774.02 231.48 770.21 236.463 770.21 242.61C770.21 248.757 774.02 253.74 778.72 253.74Z" fill="#3F3D56"/>
<path opacity="0.1" d="M810.56 149.48C811.728 148.005 812.787 146.448 813.73 144.82L791.38 141.15L815.55 141.33C817.869 136.284 819.134 130.817 819.268 125.265C819.402 119.713 818.402 114.192 816.33 109.04L783.9 125.87L813.81 103.87C811.013 99.0182 807.246 94.795 802.743 91.4641C798.241 88.1332 793.101 85.7661 787.643 84.5105C782.185 83.2549 776.527 83.1378 771.022 84.1665C765.517 85.1951 760.283 87.3475 755.647 90.4893C751.011 93.631 747.072 97.6947 744.076 102.427C741.081 107.159 739.093 112.457 738.236 117.992C737.38 123.526 737.673 129.178 739.099 134.594C740.524 140.01 743.05 145.074 746.52 149.47C744.71 151.774 743.151 154.265 741.87 156.9L770.87 171.97L740 161.6C737.827 168.021 737.291 174.882 738.438 181.562C739.585 188.243 742.38 194.532 746.57 199.86C741.836 205.868 738.89 213.086 738.067 220.69C737.244 228.294 738.578 235.977 741.916 242.858C745.255 249.739 750.464 255.542 756.946 259.601C763.428 263.661 770.922 265.814 778.57 265.814C786.218 265.814 793.712 263.661 800.194 259.601C806.677 255.542 811.885 249.739 815.224 242.858C818.562 235.977 819.896 228.294 819.074 220.69C818.251 213.086 815.304 205.868 810.57 199.86C816.22 192.679 819.291 183.807 819.291 174.67C819.291 165.533 816.22 156.661 810.57 149.48H810.56Z" fill="#FCB544"/>
<path opacity="0.1" d="M737.8 174.67C737.786 183.809 740.859 192.685 746.52 199.86C741.786 205.868 738.839 213.086 738.017 220.69C737.194 228.294 738.528 235.977 741.866 242.858C745.205 249.739 750.413 255.542 756.895 259.601C763.378 263.661 770.872 265.814 778.52 265.814C786.168 265.814 793.662 263.661 800.144 259.601C806.627 255.542 811.835 249.739 815.174 242.858C818.512 235.977 819.846 228.294 819.023 220.69C818.201 213.086 815.254 205.868 810.52 199.86C816 192.93 737.8 170.1 737.8 174.67Z" fill="black"/>
</g>
<g opacity="0.1">
<path opacity="0.1" d="M53.5597 353.917C58.2597 353.917 62.0697 348.934 62.0697 342.787C62.0697 336.64 58.2597 331.657 53.5597 331.657C48.8598 331.657 45.0497 336.64 45.0497 342.787C45.0497 348.934 48.8598 353.917 53.5597 353.917Z" fill="#3F3D56"/>
<path opacity="0.1" d="M60.2897 295.157C61.4727 293.087 62.0836 290.74 62.0597 288.357C62.0597 282.207 58.2597 277.217 53.5597 277.217C48.8597 277.217 45.0497 282.217 45.0497 288.357C45.0288 290.741 45.6432 293.088 46.8297 295.157C45.6629 297.235 45.05 299.578 45.05 301.962C45.05 304.345 45.6629 306.689 46.8297 308.767C45.6629 310.845 45.05 313.188 45.05 315.572C45.05 317.955 45.6629 320.299 46.8297 322.377C45.6432 324.445 45.0288 326.792 45.0497 329.177C45.0497 335.327 48.8597 340.317 53.5597 340.317C58.2597 340.317 62.0597 335.317 62.0597 329.177C62.0836 326.793 61.4727 324.446 60.2897 322.377C61.4473 320.296 62.0549 317.953 62.0549 315.572C62.0549 313.19 61.4473 310.848 60.2897 308.767C61.4473 306.686 62.0549 304.343 62.0549 301.962C62.0549 299.58 61.4473 297.238 60.2897 295.157V295.157Z" fill="#3F3D56"/>
<path opacity="0.1" d="M53.5597 285.877C58.2597 285.877 62.0697 280.894 62.0697 274.747C62.0697 268.6 58.2597 263.617 53.5597 263.617C48.8598 263.617 45.0497 268.6 45.0497 274.747C45.0497 280.894 48.8598 285.877 53.5597 285.877Z" fill="#3F3D56"/>
<path opacity="0.1" d="M53.5597 272.267C58.2597 272.267 62.0697 267.284 62.0697 261.137C62.0697 254.99 58.2597 250.007 53.5597 250.007C48.8598 250.007 45.0497 254.99 45.0497 261.137C45.0497 267.284 48.8598 272.267 53.5597 272.267Z" fill="#3F3D56"/>
<path opacity="0.1" d="M21.7197 168.007C20.5554 166.53 19.4961 164.972 18.5497 163.347L40.8997 159.677L16.7297 159.857C14.4111 154.81 13.146 149.344 13.0119 143.792C12.8778 138.24 13.8774 132.719 15.9497 127.567L48.3797 144.397L18.4697 122.397C21.2669 117.545 25.0342 113.322 29.5364 109.991C34.0385 106.66 39.179 104.293 44.6368 103.037C50.0946 101.782 55.7527 101.665 61.2578 102.693C66.7629 103.722 71.9969 105.874 76.6331 109.016C81.2692 112.158 85.208 116.222 88.2036 120.953C91.1991 125.685 93.1872 130.984 94.0436 136.519C94.9 142.053 94.6064 147.705 93.1811 153.121C91.7558 158.537 89.2295 163.601 85.7597 167.997C87.5764 170.296 89.1357 172.788 90.4097 175.427L61.4097 190.497L92.3397 180.117C94.5122 186.538 95.0492 193.399 93.902 200.079C92.7549 206.76 89.9597 213.049 85.7697 218.377C90.5033 224.384 93.4502 231.603 94.2732 239.207C95.0962 246.811 93.762 254.493 90.4233 261.375C87.0846 268.256 81.8763 274.058 75.3942 278.118C68.9121 282.178 61.4181 284.331 53.7697 284.331C46.1213 284.331 38.6273 282.178 32.1452 278.118C25.6632 274.058 20.4548 268.256 17.1161 261.375C13.7775 254.493 12.4433 246.811 13.2662 239.207C14.0892 231.603 17.0361 224.384 21.7697 218.377C16.1202 211.196 13.0486 202.324 13.0486 193.187C13.0486 184.05 16.1202 175.178 21.7697 167.997L21.7197 168.007Z" fill="#FCB544"/>
<path opacity="0.1" d="M94.4797 193.197C94.4933 202.336 91.4207 211.212 85.7597 218.387C90.4933 224.394 93.4402 231.613 94.2632 239.217C95.0862 246.821 93.752 254.503 90.4133 261.385C87.0746 268.266 81.8663 274.068 75.3842 278.128C68.9021 282.188 61.4082 284.341 53.7597 284.341C46.1113 284.341 38.6173 282.188 32.1353 278.128C25.6532 274.068 20.4449 268.266 17.1062 261.385C13.7675 254.503 12.4333 246.821 13.2562 239.217C14.0792 231.613 17.0261 224.394 21.7597 218.387C16.2597 211.457 94.4797 188.627 94.4797 193.197Z" fill="black"/>
</g>
<path opacity="0.1" d="M473 575C734.231 575 946 570.971 946 566C946 561.029 734.231 557 473 557C211.769 557 0 561.029 0 566C0 570.971 211.769 575 473 575Z" fill="#FCB544"/>
<path opacity="0.1" d="M473 350C734.231 350 946 345.971 946 341C946 336.029 734.231 332 473 332C211.769 332 0 336.029 0 341C0 345.971 211.769 350 473 350Z" fill="#FCB544"/>
<path opacity="0.1" d="M473 426C734.231 426 946 421.971 946 417C946 412.029 734.231 408 473 408C211.769 408 0 412.029 0 417C0 421.971 211.769 426 473 426Z" fill="#FCB544"/>
<path opacity="0.1" d="M658.79 110.37C655.22 109.696 651.53 110.1 648.19 111.53C646.185 112.423 644.015 112.885 641.82 112.885C639.625 112.885 637.455 112.423 635.45 111.53C633.078 110.489 630.508 109.976 627.918 110.026C625.328 110.076 622.78 110.688 620.45 111.82C619.123 112.525 617.643 112.896 616.14 112.9C610.06 112.9 605.01 106.78 603.96 98.71C605.157 97.8181 606.174 96.7088 606.96 95.44C610.52 89.7 616.03 86.01 622.23 86.01C628.43 86.01 633.87 89.65 637.43 95.33C638.49 97.0461 639.977 98.4584 641.745 99.4293C643.513 100.4 645.503 100.897 647.52 100.87H647.68C652.57 100.82 656.76 104.7 658.79 110.37Z" fill="#FCB544"/>
<path opacity="0.1" d="M677.3 85.0201L667.48 91.2401L673.48 80.4001C671.79 79.055 669.7 78.3125 667.54 78.2901H667.38C666.71 78.2992 666.041 78.249 665.38 78.1401L662 80.2501L663.43 77.6501C661.067 76.8322 659.025 75.2843 657.6 73.2301L651.6 77.0101L655.36 70.1701C651.88 65.9901 647.18 63.4301 642.02 63.4301C635.82 63.4301 630.31 67.1101 626.74 72.8501C625.688 74.5664 624.2 75.9737 622.428 76.9291C620.656 77.8846 618.662 78.3541 616.65 78.2901H616.32C609.48 78.2901 603.94 86.0401 603.94 95.6001C603.94 105.16 609.48 112.92 616.32 112.92C617.822 112.91 619.3 112.54 620.63 111.84C622.959 110.705 625.507 110.09 628.097 110.039C630.687 109.987 633.258 110.499 635.63 111.54C637.633 112.44 639.804 112.905 642 112.905C644.196 112.905 646.367 112.44 648.37 111.54C650.723 110.522 653.268 110.022 655.831 110.072C658.395 110.122 660.918 110.721 663.23 111.83C664.545 112.518 666.006 112.882 667.49 112.89C674.33 112.89 679.87 105.13 679.87 95.5701C679.911 91.8936 679.028 88.2657 677.3 85.0201V85.0201Z" fill="#FCB544"/>
<path opacity="0.1" d="M241.26 104.96C238.758 104.487 236.172 104.769 233.83 105.77C232.428 106.396 230.91 106.72 229.375 106.72C227.84 106.72 226.322 106.396 224.92 105.77C223.261 105.041 221.463 104.683 219.652 104.719C217.84 104.755 216.058 105.186 214.43 105.98C213.503 106.463 212.475 106.72 211.43 106.73C207.18 106.73 203.64 102.45 202.9 96.8C203.748 96.1782 204.471 95.4012 205.03 94.5101C207.52 90.5101 211.38 87.91 215.72 87.91C220.06 87.91 223.87 90.46 226.36 94.43C227.104 95.6318 228.145 96.6207 229.384 97.3006C230.623 97.9805 232.017 98.3282 233.43 98.31H233.54C236.9 98.29 239.83 101.01 241.26 104.96Z" fill="#FCB544"/>
<path opacity="0.1" d="M254.21 87.23L247.34 91.59L251.51 84C250.331 83.0563 248.87 82.5352 247.36 82.52H247.24C246.764 82.5285 246.289 82.4917 245.82 82.41L243.49 83.89L244.49 82.07C242.838 81.4955 241.411 80.414 240.41 78.98L236.24 81.62L238.88 76.84C237.771 75.4083 236.358 74.2412 234.743 73.4231C233.127 72.605 231.35 72.1565 229.54 72.11C225.2 72.11 221.34 74.69 218.85 78.71C218.112 79.9119 217.069 80.8974 215.828 81.5665C214.586 82.2355 213.19 82.5645 211.78 82.52H211.55C206.76 82.52 202.88 87.94 202.88 94.64C202.88 101.34 206.76 106.76 211.55 106.76C212.597 106.752 213.626 106.491 214.55 106C216.178 105.21 217.959 104.783 219.768 104.748C221.577 104.714 223.373 105.073 225.03 105.8C226.44 106.443 227.97 106.784 229.52 106.8C231.046 106.797 232.555 106.477 233.95 105.86C235.597 105.147 237.378 104.796 239.172 104.831C240.966 104.865 242.732 105.284 244.35 106.06C245.276 106.545 246.305 106.799 247.35 106.8C252.13 106.8 256.01 101.37 256.01 94.68C256.05 92.0843 255.431 89.5208 254.21 87.23V87.23Z" fill="#FCB544"/>
<path opacity="0.1" d="M119.59 183.37C122.089 182.898 124.672 183.18 127.01 184.18C128.413 184.807 129.933 185.13 131.47 185.13C133.007 185.13 134.527 184.807 135.93 184.18C137.589 183.453 139.386 183.094 141.197 183.128C143.008 183.163 144.79 183.59 146.42 184.38C147.344 184.872 148.373 185.133 149.42 185.14C153.67 185.14 157.21 180.85 157.94 175.2C157.092 174.58 156.373 173.803 155.82 172.91C153.32 168.91 149.46 166.32 145.13 166.32C140.8 166.32 136.98 168.86 134.48 172.84C133.737 174.04 132.697 175.028 131.46 175.708C130.223 176.388 128.831 176.737 127.42 176.72H127.31C123.94 176.74 121 179.45 119.59 183.37Z" fill="#FCB544"/>
<path opacity="0.1" d="M106.63 165.67L113.51 170.03L109.33 162.45C110.512 161.503 111.976 160.979 113.49 160.96H113.6C114.079 160.967 114.557 160.933 115.03 160.86L117.36 162.33L116.36 160.52C118.008 159.944 119.433 158.863 120.43 157.43L124.6 160.07L122 155.28C123.109 153.85 124.523 152.684 126.138 151.868C127.754 151.051 129.531 150.605 131.34 150.56C135.67 150.56 139.54 153.14 142.03 157.16C142.767 158.36 143.808 159.345 145.048 160.014C146.288 160.683 147.682 161.013 149.09 160.97H149.33C154.11 160.97 157.99 166.4 157.99 173.09C157.99 179.78 154.11 185.21 149.33 185.21C148.284 185.205 147.255 184.948 146.33 184.46C144.702 183.666 142.92 183.235 141.108 183.199C139.297 183.163 137.499 183.521 135.84 184.25C134.435 184.899 132.907 185.24 131.36 185.25C129.831 185.249 128.319 184.929 126.92 184.31C125.275 183.598 123.496 183.247 121.703 183.281C119.911 183.316 118.147 183.735 116.53 184.51C115.604 184.995 114.575 185.249 113.53 185.25C108.74 185.25 104.86 179.83 104.86 173.13C104.813 170.534 105.422 167.968 106.63 165.67V165.67Z" fill="#FCB544"/>
<path d="M514.31 490.26C516.92 485.42 513.96 479.5 510.56 475.19C507.16 470.88 503 466.39 503.09 460.9C503.22 453.01 511.6 448.34 518.29 444.16C523.258 441.045 527.84 437.352 531.94 433.16C533.655 431.546 535.073 429.644 536.13 427.54C537.52 424.46 537.48 420.94 537.39 417.54C537.103 406.28 536.547 395.027 535.72 383.78" stroke="#3F3D56" stroke-width="4" stroke-miterlimit="10"/>
<path d="M548.45 383.22C548.353 381.157 547.74 379.152 546.665 377.389C545.59 375.626 544.089 374.161 542.3 373.13L539.54 378.58L539.63 371.98C537.127 371.243 534.454 371.32 531.998 372.201C529.542 373.082 527.429 374.72 525.965 376.88C524.5 379.039 523.76 381.608 523.851 384.216C523.941 386.824 524.858 389.335 526.469 391.388C528.08 393.441 530.301 394.929 532.812 395.637C535.324 396.345 537.995 396.237 540.441 395.328C542.887 394.419 544.981 392.756 546.42 390.58C547.86 388.404 548.571 385.826 548.45 383.22V383.22Z" fill="#FCB544"/>
<path d="M526.49 466.54C525.252 468.947 523.255 470.879 520.808 472.036C518.361 473.193 515.601 473.512 512.955 472.943C510.308 472.374 507.924 470.948 506.169 468.887C504.415 466.825 503.389 464.243 503.25 461.54C503.158 459.835 503.431 458.131 504.05 456.54C504.957 454.22 506.545 452.229 508.606 450.83C510.667 449.431 513.104 448.69 515.595 448.704C518.086 448.718 520.514 449.487 522.559 450.909C524.604 452.331 526.17 454.34 527.05 456.67L519.36 462.93L527.82 460.93C527.83 462.879 527.374 464.803 526.49 466.54V466.54Z" fill="#FCB544"/>
<path d="M520.41 442.64C517.389 442.782 514.421 441.808 512.073 439.902C509.725 437.996 508.16 435.292 507.678 432.306C507.196 429.32 507.83 426.262 509.459 423.714C511.088 421.165 513.598 419.306 516.51 418.49L516.44 423.56L519.23 418.04C522.492 417.887 525.681 419.037 528.096 421.236C530.51 423.435 531.952 426.503 532.105 429.765C532.257 433.027 531.108 436.216 528.909 438.631C526.71 441.045 523.642 442.488 520.38 442.64H520.41Z" fill="#FCB544"/>
<path d="M550.3 422.75C548.391 422.849 546.486 422.501 544.735 421.736C542.984 420.971 541.435 419.808 540.211 418.34C538.987 416.873 538.121 415.14 537.683 413.28C537.245 411.42 537.245 409.483 537.685 407.623C538.125 405.763 538.992 404.031 540.217 402.564C541.443 401.098 542.992 399.936 544.744 399.173C546.496 398.409 548.402 398.063 550.31 398.163C552.219 398.264 554.078 398.807 555.74 399.75L553.57 405.75L558 401.37C559.792 403.013 561.057 405.149 561.636 407.51C562.216 409.871 562.083 412.35 561.255 414.636C560.427 416.921 558.942 418.911 556.985 420.353C555.028 421.795 552.688 422.626 550.26 422.74L550.3 422.75Z" fill="#FCB544"/>
<path opacity="0.1" d="M546.79 386.5C543.95 386.81 541.19 387.69 538.33 387.87C535.47 388.05 532.33 387.36 530.55 385.15C529.713 383.862 528.952 382.527 528.27 381.15C527.493 379.937 526.428 378.933 525.17 378.23C524.374 379.79 523.919 381.502 523.838 383.252C523.756 385.002 524.048 386.749 524.696 388.376C525.343 390.004 526.33 391.475 527.591 392.69C528.853 393.906 530.359 394.838 532.009 395.425C533.659 396.012 535.416 396.24 537.162 396.094C538.907 395.948 540.601 395.431 542.131 394.577C543.661 393.724 544.991 392.554 546.032 391.146C547.074 389.737 547.802 388.123 548.17 386.41C547.72 386.42 547.25 386.45 546.79 386.5Z" fill="black"/>
<path opacity="0.1" d="M550.3 422.75C548.177 422.85 546.065 422.4 544.168 421.442C542.272 420.484 540.655 419.051 539.476 417.283C538.297 415.516 537.596 413.473 537.441 411.353C537.285 409.234 537.681 407.111 538.59 405.19C539.566 405.849 540.405 406.691 541.06 407.67C541.795 409.072 542.61 410.431 543.5 411.74C545.42 413.99 548.7 414.74 551.67 414.59C554.64 414.44 557.51 413.59 560.47 413.34C560.88 413.34 561.29 413.28 561.71 413.27C561.098 415.876 559.652 418.211 557.593 419.922C555.534 421.632 552.974 422.625 550.3 422.75V422.75Z" fill="black"/>
<path opacity="0.1" d="M520.41 442.64C518.309 442.738 516.219 442.297 514.337 441.358C512.455 440.419 510.846 439.014 509.661 437.276C508.477 435.538 507.758 433.526 507.572 431.431C507.386 429.336 507.74 427.229 508.6 425.31C509.615 425.978 510.499 426.825 511.21 427.81C512.016 429.245 512.908 430.631 513.88 431.96C515.95 434.27 519.45 435.09 522.59 434.96C525.73 434.83 528.59 434.15 531.59 433.96C530.843 436.38 529.37 438.511 527.37 440.064C525.369 441.617 522.939 442.516 520.41 442.64Z" fill="black"/>
<path opacity="0.1" d="M526.49 466.54C525.252 468.947 523.255 470.879 520.808 472.036C518.361 473.193 515.601 473.512 512.955 472.943C510.308 472.374 507.924 470.948 506.169 468.887C504.415 466.825 503.389 464.243 503.25 461.54C503.158 459.835 503.431 458.131 504.05 456.54C505.064 457.206 505.974 458.018 506.75 458.95C507.92 460.37 508.69 461.95 510.05 463.32C512.56 465.79 516.63 466.81 520.24 466.9C522.329 466.906 524.416 466.786 526.49 466.54V466.54Z" fill="black"/>
<path d="M310.52 335.89C307.91 331.06 310.87 325.14 314.28 320.83C317.69 316.52 321.83 312.03 321.74 306.54C321.62 298.64 313.24 293.98 306.54 289.8C301.574 286.686 296.995 282.994 292.9 278.8C291.177 277.195 289.755 275.295 288.7 273.19C287.32 270.1 287.36 266.59 287.44 263.19C287.74 251.93 288.297 240.677 289.11 229.43" stroke="#3F3D56" stroke-width="4" stroke-miterlimit="10"/>
<path d="M276.39 228.86C276.485 226.798 277.097 224.793 278.17 223.03C279.243 221.266 280.742 219.802 282.53 218.77L285.29 224.22L285.21 217.62C286.524 217.238 287.892 217.073 289.26 217.13C291.692 217.243 294.035 218.075 295.994 219.52C297.954 220.965 299.44 222.959 300.266 225.249C301.093 227.539 301.221 230.022 300.636 232.385C300.051 234.748 298.778 236.885 296.979 238.525C295.18 240.165 292.935 241.234 290.528 241.598C288.121 241.962 285.66 241.604 283.456 240.57C281.252 239.536 279.405 237.871 278.147 235.787C276.889 233.702 276.278 231.292 276.39 228.86V228.86Z" fill="#FCB544"/>
<path d="M298.34 312.18C299.63 314.692 301.746 316.684 304.331 317.822C306.916 318.96 309.813 319.175 312.538 318.429C315.262 317.684 317.647 316.025 319.293 313.73C320.939 311.435 321.746 308.643 321.578 305.824C321.41 303.005 320.278 300.329 318.371 298.245C316.465 296.161 313.899 294.797 311.106 294.38C308.312 293.964 305.461 294.52 303.029 295.957C300.597 297.393 298.733 299.622 297.75 302.27L305.44 308.53L296.98 306.53C296.973 308.495 297.44 310.433 298.34 312.18V312.18Z" fill="#FCB544"/>
<path d="M304.42 288.28C307.442 288.425 310.412 287.453 312.762 285.547C315.113 283.642 316.679 280.938 317.163 277.952C317.647 274.965 317.013 271.905 315.384 269.355C313.755 266.806 311.244 264.946 308.33 264.13L308.39 269.2L305.6 263.68C302.339 263.52 299.148 264.661 296.729 266.853C294.31 269.046 292.86 272.109 292.7 275.37C292.63 276.79 292.809 278.212 293.23 279.57C293.968 281.999 295.44 284.14 297.444 285.7C299.447 287.259 301.884 288.161 304.42 288.28V288.28Z" fill="#FCB544"/>
<path d="M274.54 268.37C276.448 268.467 278.353 268.119 280.103 267.352C281.854 266.586 283.402 265.423 284.625 263.954C285.848 262.486 286.712 260.753 287.149 258.893C287.587 257.033 287.585 255.097 287.144 253.238C286.704 251.378 285.836 249.647 284.611 248.181C283.385 246.715 281.836 245.554 280.084 244.791C278.332 244.028 276.427 243.682 274.519 243.783C272.61 243.883 270.752 244.427 269.09 245.37L271.27 251.37L266.79 247.08C265.595 248.162 264.626 249.471 263.94 250.93C263.253 252.389 262.862 253.969 262.79 255.58C262.73 256.719 262.835 257.861 263.1 258.97C263.727 261.567 265.183 263.888 267.247 265.584C269.311 267.28 271.871 268.258 274.54 268.37Z" fill="#FCB544"/>
<path opacity="0.1" d="M278.05 232.14C280.89 232.45 283.65 233.33 286.5 233.51C289.35 233.69 292.5 233 294.29 230.79C295.124 229.502 295.882 228.166 296.56 226.79C297.341 225.576 298.409 224.573 299.67 223.87C300.468 225.431 300.923 227.144 301.006 228.894C301.089 230.645 300.796 232.393 300.149 234.022C299.501 235.651 298.513 237.122 297.251 238.339C295.989 239.555 294.482 240.487 292.83 241.074C291.178 241.661 289.421 241.888 287.674 241.74C285.928 241.593 284.233 241.074 282.703 240.219C281.173 239.364 279.843 238.192 278.803 236.781C277.763 235.371 277.035 233.754 276.67 232.04C277.12 232.05 277.58 232.09 278.05 232.14Z" fill="black"/>
<path opacity="0.1" d="M274.54 268.37C276.662 268.468 278.772 268.015 280.667 267.056C282.563 266.098 284.178 264.665 285.356 262.898C286.534 261.131 287.236 259.09 287.392 256.972C287.549 254.854 287.156 252.731 286.25 250.81C285.271 251.469 284.429 252.311 283.77 253.29C283.035 254.692 282.22 256.051 281.33 257.36C279.42 259.61 276.14 260.36 273.17 260.21C270.2 260.06 267.33 259.21 264.37 258.96C263.96 258.96 263.54 258.9 263.13 258.89C263.741 261.497 265.186 263.833 267.245 265.544C269.304 267.255 271.866 268.247 274.54 268.37V268.37Z" fill="black"/>
<path opacity="0.1" d="M304.42 288.28C306.522 288.381 308.614 287.942 310.497 287.003C312.38 286.065 313.991 284.66 315.176 282.921C316.361 281.182 317.08 279.169 317.265 277.073C317.449 274.977 317.093 272.869 316.23 270.95C315.217 271.616 314.335 272.463 313.63 273.45C312.824 274.885 311.932 276.271 310.96 277.6C308.88 279.91 305.39 280.73 302.24 280.6C299.09 280.47 296.24 279.79 293.24 279.6C293.983 282.022 295.455 284.156 297.456 285.709C299.457 287.263 301.889 288.161 304.42 288.28V288.28Z" fill="black"/>
<path opacity="0.1" d="M298.34 312.18C299.785 314.966 302.239 317.094 305.201 318.131C308.163 319.167 311.41 319.033 314.276 317.756C317.143 316.48 319.413 314.156 320.624 311.261C321.835 308.366 321.894 305.117 320.79 302.18C319.772 302.84 318.861 303.653 318.09 304.59C316.92 306.01 316.09 307.59 314.79 308.96C312.27 311.43 308.21 312.45 304.59 312.54C302.501 312.541 300.415 312.421 298.34 312.18V312.18Z" fill="black"/>
<path d="M629.73 338.14C684.936 338.14 729.69 293.386 729.69 238.18C729.69 182.974 684.936 138.22 629.73 138.22C574.524 138.22 529.77 182.974 529.77 238.18C529.77 293.386 574.524 338.14 629.73 338.14Z" fill="#3F3D56"/>
<path d="M672.64 263.96C669.16 260.48 660.79 255.23 656.64 253.27C651.85 250.97 650.09 251.01 646.7 253.46C643.88 255.46 642.05 257.39 638.81 256.68C635.57 255.97 629.15 251.13 622.94 244.94C616.73 238.75 611.91 232.37 611.22 229.08C610.53 225.79 612.43 224 614.45 221.18C616.89 217.79 616.96 216.03 614.64 211.24C612.64 207.09 607.45 198.74 603.94 195.24C600.43 191.74 599.67 192.51 597.75 193.24C595.774 194.068 593.876 195.072 592.08 196.24C588.6 198.57 586.65 200.51 585.28 203.43C583.91 206.35 582.36 211.77 590.33 225.96C596.209 236.815 603.656 246.745 612.43 255.43V255.43C621.144 264.224 631.108 271.684 642 277.57C656.18 285.57 661.61 283.98 664.53 282.62C667.45 281.26 669.39 279.33 671.71 275.82C672.88 274.025 673.884 272.127 674.71 270.15C675.37 268.23 676.15 267.45 672.64 263.96Z" fill="#FCB544"/>
<path opacity="0.1" d="M629.73 138.23C609.948 138.22 590.607 144.078 574.154 155.062C557.702 166.047 544.877 181.664 537.302 199.939C529.727 218.213 527.742 238.324 531.599 257.727C535.456 277.13 544.981 294.952 558.969 308.941C572.958 322.929 590.78 332.454 610.183 336.311C629.586 340.168 649.697 338.183 667.971 330.608C686.246 323.033 701.863 310.208 712.848 293.756C723.832 277.303 729.69 257.962 729.68 238.18C729.667 211.676 719.132 186.261 700.391 167.519C681.649 148.778 656.234 138.243 629.73 138.23V138.23ZM629.73 324.85C612.588 324.85 595.832 319.767 581.579 310.243C567.326 300.72 556.217 287.184 549.657 271.347C543.098 255.51 541.381 238.084 544.725 221.272C548.07 204.459 556.324 189.016 568.445 176.895C580.566 164.774 596.009 156.52 612.822 153.175C629.634 149.831 647.06 151.548 662.897 158.107C678.734 164.667 692.27 175.776 701.793 190.029C711.317 204.282 716.4 221.038 716.4 238.18C716.4 249.562 714.158 260.832 709.803 271.347C705.447 281.862 699.063 291.417 691.015 299.465C682.967 307.513 673.412 313.897 662.897 318.253C652.382 322.608 641.112 324.85 629.73 324.85Z" fill="black"/>
<path d="M400.08 489.97C455.286 489.97 500.04 445.216 500.04 390.01C500.04 334.804 455.286 290.05 400.08 290.05C344.874 290.05 300.12 334.804 300.12 390.01C300.12 445.216 344.874 489.97 400.08 489.97Z" fill="#3F3D56"/>
<path d="M456.93 359.81L427 390.26C426.947 390.31 426.906 390.371 426.877 390.438C426.848 390.505 426.834 390.577 426.834 390.65C426.834 390.723 426.848 390.795 426.877 390.862C426.906 390.929 426.947 390.99 427 391.04L448 413.37C448.502 413.876 448.844 414.519 448.982 415.219C449.12 415.919 449.049 416.644 448.776 417.303C448.504 417.962 448.043 418.526 447.451 418.924C446.859 419.322 446.163 419.536 445.45 419.54C444.49 419.538 443.57 419.157 442.89 418.48L422 396.23C421.893 396.125 421.75 396.066 421.6 396.066C421.45 396.066 421.307 396.125 421.2 396.23L416.11 401.37C414.026 403.501 411.537 405.194 408.789 406.35C406.042 407.506 403.091 408.101 400.11 408.1C397.073 408.086 394.069 407.467 391.274 406.279C388.478 405.09 385.948 403.357 383.83 401.18L378.94 396.18C378.833 396.075 378.69 396.016 378.54 396.016C378.39 396.016 378.247 396.075 378.14 396.18L357.3 418.38C356.965 418.716 356.566 418.982 356.128 419.164C355.69 419.346 355.22 419.44 354.745 419.44C354.27 419.44 353.8 419.346 353.362 419.164C352.924 418.982 352.525 418.716 352.19 418.38C351.853 418.045 351.585 417.647 351.403 417.209C351.22 416.77 351.126 416.3 351.126 415.825C351.126 415.35 351.22 414.88 351.403 414.441C351.585 414.003 351.853 413.605 352.19 413.27L373.11 390.99C373.203 390.881 373.254 390.743 373.254 390.6C373.254 390.457 373.203 390.319 373.11 390.21L343.18 359.76C343.103 359.683 343.005 359.63 342.898 359.609C342.791 359.587 342.68 359.598 342.579 359.64C342.478 359.682 342.392 359.752 342.332 359.843C342.272 359.934 342.24 360.041 342.24 360.15V421.08C342.248 423.435 343.187 425.692 344.853 427.357C346.518 429.023 348.775 429.962 351.13 429.97H449C451.355 429.962 453.612 429.023 455.277 427.357C456.943 425.692 457.882 423.435 457.89 421.08V360.2C457.895 360.087 457.865 359.974 457.803 359.879C457.742 359.783 457.653 359.709 457.548 359.666C457.442 359.624 457.327 359.615 457.216 359.64C457.105 359.666 457.006 359.725 456.93 359.81V359.81Z" fill="#FCB544"/>
<path d="M400.08 400.87C402.109 400.89 404.121 400.502 405.997 399.729C407.873 398.956 409.574 397.814 411 396.37L454.59 352C453.043 350.718 451.099 350.012 449.09 350H351.15C349.14 350.007 347.195 350.714 345.65 352L389.25 396.37C390.663 397.805 392.35 398.943 394.21 399.716C396.07 400.489 398.066 400.881 400.08 400.87V400.87Z" fill="#FCB544"/>
<path opacity="0.1" d="M398.82 290.06C379.038 290.05 359.697 295.908 343.244 306.892C326.792 317.877 313.967 333.494 306.392 351.769C298.817 370.043 296.832 390.154 300.689 409.557C304.546 428.96 314.071 446.783 328.059 460.771C342.048 474.759 359.871 484.284 379.273 488.141C398.676 491.998 418.787 490.013 437.061 482.438C455.336 474.863 470.953 462.038 481.938 445.586C492.922 429.133 498.78 409.792 498.77 390.01C498.757 363.506 488.222 338.091 469.481 319.349C450.739 300.608 425.324 290.073 398.82 290.06ZM398.82 476.68C381.678 476.68 364.922 471.597 350.669 462.074C336.416 452.55 325.307 439.014 318.747 423.177C312.188 407.34 310.471 389.914 313.815 373.102C317.16 356.289 325.414 340.846 337.535 328.725C349.656 316.604 365.099 308.35 381.912 305.005C398.724 301.661 416.15 303.378 431.987 309.937C447.824 316.497 461.36 327.606 470.883 341.859C480.407 356.112 485.49 372.868 485.49 390.01C485.49 412.996 476.359 435.041 460.105 451.295C443.851 467.549 421.806 476.68 398.82 476.68Z" fill="black"/>
<path opacity="0.1" d="M398.82 290.06C379.038 290.05 359.697 295.908 343.244 306.892C326.792 317.877 313.967 333.494 306.392 351.769C298.817 370.043 296.832 390.154 300.689 409.557C304.546 428.96 314.071 446.783 328.059 460.771C342.048 474.759 359.871 484.284 379.273 488.141C398.676 491.998 418.787 490.013 437.061 482.438C455.336 474.863 470.953 462.038 481.938 445.586C492.922 429.133 498.78 409.792 498.77 390.01C498.757 363.506 488.222 338.091 469.481 319.349C450.739 300.608 425.324 290.073 398.82 290.06ZM398.82 476.68C381.678 476.68 364.922 471.597 350.669 462.074C336.416 452.55 325.307 439.014 318.747 423.177C312.188 407.34 310.471 389.914 313.815 373.102C317.16 356.289 325.414 340.846 337.535 328.725C349.656 316.604 365.099 308.35 381.912 305.005C398.724 301.661 416.15 303.378 431.987 309.937C447.824 316.497 461.36 327.606 470.883 341.859C480.407 356.112 485.49 372.868 485.49 390.01C485.49 412.996 476.359 435.041 460.105 451.295C443.851 467.549 421.806 476.68 398.82 476.68Z" fill="black"/>
<g opacity="0.1">
<path opacity="0.1" d="M903.28 339.917C907.98 339.917 911.79 334.934 911.79 328.787C911.79 322.64 907.98 317.657 903.28 317.657C898.58 317.657 894.77 322.64 894.77 328.787C894.77 334.934 898.58 339.917 903.28 339.917Z" fill="#3F3D56"/>
<path opacity="0.1" d="M910 281.157C911.183 279.087 911.794 276.74 911.77 274.357C911.77 268.207 907.96 263.217 903.27 263.217C898.58 263.217 894.76 268.217 894.76 274.357C894.734 276.742 895.349 279.09 896.54 281.157C895.373 283.235 894.76 285.578 894.76 287.962C894.76 290.345 895.373 292.689 896.54 294.767C895.373 296.845 894.76 299.188 894.76 301.572C894.76 303.955 895.373 306.299 896.54 308.377C895.349 310.443 894.734 312.792 894.76 315.177C894.76 321.327 898.57 326.317 903.27 326.317C907.97 326.317 911.77 321.317 911.77 315.177C911.794 312.793 911.183 310.446 910 308.377C911.158 306.296 911.765 303.953 911.765 301.572C911.765 299.19 911.158 296.848 910 294.767C911.158 292.686 911.765 290.343 911.765 287.962C911.765 285.58 911.158 283.238 910 281.157V281.157Z" fill="#3F3D56"/>
<path opacity="0.1" d="M903.28 271.877C907.98 271.877 911.79 266.894 911.79 260.747C911.79 254.6 907.98 249.617 903.28 249.617C898.58 249.617 894.77 254.6 894.77 260.747C894.77 266.894 898.58 271.877 903.28 271.877Z" fill="#3F3D56"/>
<path opacity="0.1" d="M903.28 258.267C907.98 258.267 911.79 253.284 911.79 247.137C911.79 240.99 907.98 236.007 903.28 236.007C898.58 236.007 894.77 240.99 894.77 247.137C894.77 253.284 898.58 258.267 903.28 258.267Z" fill="#3F3D56"/>
<path opacity="0.1" d="M871.44 154.007C870.272 152.532 869.213 150.975 868.27 149.347L890.62 145.677L866.45 145.857C864.131 140.81 862.866 135.344 862.732 129.792C862.598 124.24 863.598 118.719 865.67 113.567L898.1 130.397L868.19 108.397C870.987 103.545 874.754 99.3219 879.257 95.991C883.759 92.6601 888.899 90.2929 894.357 89.0373C899.815 87.7817 905.473 87.6646 910.978 88.6933C916.483 89.722 921.717 91.8744 926.353 95.0161C930.989 98.1579 934.928 102.222 937.924 106.953C940.919 111.685 942.907 116.984 943.764 122.519C944.62 128.053 944.327 133.705 942.901 139.121C941.476 144.537 938.95 149.601 935.48 153.997C937.29 156.301 938.849 158.792 940.13 161.427L911.13 176.497L942.06 166.117C944.233 172.538 944.77 179.399 943.622 186.079C942.475 192.76 939.68 199.049 935.49 204.377C940.224 210.384 943.171 217.603 943.993 225.207C944.816 232.811 943.482 240.493 940.144 247.375C936.805 254.256 931.597 260.058 925.114 264.118C918.632 268.178 911.138 270.331 903.49 270.331C895.842 270.331 888.348 268.178 881.866 264.118C875.383 260.058 870.175 254.256 866.836 247.375C863.498 240.493 862.164 232.811 862.987 225.207C863.809 217.603 866.756 210.384 871.49 204.377C865.84 197.196 862.769 188.324 862.769 179.187C862.769 170.05 865.84 161.178 871.49 153.997L871.44 154.007Z" fill="#FCB544"/>
<path opacity="0.1" d="M944.2 179.197C944.214 188.336 941.141 197.212 935.48 204.387C940.214 210.394 943.16 217.613 943.983 225.217C944.806 232.821 943.472 240.503 940.134 247.385C936.795 254.266 931.587 260.068 925.104 264.128C918.622 268.188 911.128 270.341 903.48 270.341C895.832 270.341 888.338 268.188 881.856 264.128C875.373 260.068 870.165 254.266 866.826 247.385C863.488 240.503 862.154 232.821 862.976 225.217C863.799 217.613 866.746 210.394 871.48 204.387C866 197.457 944.2 174.627 944.2 179.197Z" fill="black"/>
</g>
<path d="M841.08 488.497C896.286 488.497 941.04 443.743 941.04 388.537C941.04 333.331 896.286 288.577 841.08 288.577C785.874 288.577 741.12 333.331 741.12 388.537C741.12 443.743 785.874 488.497 841.08 488.497Z" fill="#3F3D56"/>
<path opacity="0.1" d="M839.82 288.587C820.038 288.577 800.697 294.435 784.244 305.419C767.792 316.403 754.967 332.021 747.392 350.295C739.817 368.57 737.832 388.681 741.689 408.084C745.546 427.486 755.071 445.309 769.059 459.298C783.048 473.286 800.871 482.811 820.273 486.668C839.676 490.525 859.787 488.54 878.062 480.965C896.336 473.39 911.954 460.565 922.938 444.113C933.922 427.66 939.78 408.319 939.77 388.537C939.757 362.033 929.222 336.618 910.481 317.876C891.739 299.135 866.324 288.6 839.82 288.587ZM839.82 475.207C822.678 475.207 805.922 470.124 791.669 460.6C777.416 451.077 766.307 437.541 759.747 421.704C753.188 405.867 751.471 388.441 754.815 371.628C758.16 354.816 766.414 339.373 778.535 327.252C790.656 315.131 806.099 306.876 822.912 303.532C839.724 300.188 857.15 301.904 872.987 308.464C888.824 315.024 902.36 326.133 911.884 340.386C921.407 354.638 926.49 371.395 926.49 388.537C926.49 411.523 917.359 433.568 901.105 449.822C884.851 466.076 862.806 475.207 839.82 475.207Z" fill="black"/>
<path opacity="0.1" d="M839.82 288.587C820.038 288.577 800.697 294.435 784.244 305.419C767.792 316.403 754.967 332.021 747.392 350.295C739.817 368.57 737.832 388.681 741.689 408.084C745.546 427.486 755.071 445.309 769.059 459.298C783.048 473.286 800.871 482.811 820.273 486.668C839.676 490.525 859.787 488.54 878.062 480.965C896.336 473.39 911.954 460.565 922.938 444.113C933.922 427.66 939.78 408.319 939.77 388.537C939.757 362.033 929.222 336.618 910.481 317.876C891.739 299.135 866.324 288.6 839.82 288.587ZM839.82 475.207C822.678 475.207 805.922 470.124 791.669 460.6C777.416 451.077 766.307 437.541 759.747 421.704C753.188 405.867 751.471 388.441 754.815 371.628C758.16 354.816 766.414 339.373 778.535 327.252C790.656 315.131 806.099 306.876 822.912 303.532C839.724 300.188 857.15 301.904 872.987 308.464C888.824 315.024 902.36 326.133 911.884 340.386C921.407 354.638 926.49 371.395 926.49 388.537C926.49 411.523 917.359 433.568 901.105 449.822C884.851 466.076 862.806 475.207 839.82 475.207Z" fill="black"/>
<path opacity="0.1" d="M839.82 288.587C820.038 288.577 800.697 294.435 784.244 305.419C767.792 316.403 754.967 332.021 747.392 350.295C739.817 368.57 737.832 388.681 741.689 408.084C745.546 427.486 755.071 445.309 769.059 459.298C783.048 473.286 800.871 482.811 820.273 486.668C839.676 490.525 859.787 488.54 878.062 480.965C896.336 473.39 911.954 460.565 922.938 444.113C933.922 427.66 939.78 408.319 939.77 388.537C939.757 362.033 929.222 336.618 910.481 317.876C891.739 299.135 866.324 288.6 839.82 288.587ZM839.82 475.207C822.678 475.207 805.922 470.124 791.669 460.6C777.416 451.077 766.307 437.541 759.747 421.704C753.188 405.867 751.471 388.441 754.815 371.628C758.16 354.816 766.414 339.373 778.535 327.252C790.656 315.131 806.099 306.876 822.912 303.532C839.724 300.188 857.15 301.904 872.987 308.464C888.824 315.024 902.36 326.133 911.884 340.386C921.407 354.638 926.49 371.395 926.49 388.537C926.49 411.523 917.359 433.568 901.105 449.822C884.851 466.076 862.806 475.207 839.82 475.207Z" fill="black"/>
<path d="M162.85 415.32C218.056 415.32 262.81 370.566 262.81 315.36C262.81 260.154 218.056 215.4 162.85 215.4C107.644 215.4 62.89 260.154 62.89 315.36C62.89 370.566 107.644 415.32 162.85 415.32Z" fill="#3F3D56"/>
<path d="M202.747 279.126L109.626 316.131L109.635 321.392L146.488 335.608L160.839 372.407L166.1 372.398L202.747 279.126Z" fill="#FCB544"/>
<path opacity="0.1" d="M162.85 215.37C143.07 215.36 123.731 221.217 107.279 232.199C90.8279 243.181 78.0028 258.795 70.4264 277.067C62.85 295.339 60.8625 315.447 64.7154 334.848C68.5683 354.25 78.0884 372.073 92.0717 386.063C106.055 400.053 123.873 409.582 143.273 413.445C162.672 417.307 182.781 415.33 201.057 407.763C219.332 400.195 234.953 387.378 245.943 370.932C256.934 354.486 262.8 335.15 262.8 315.37C262.8 288.857 252.271 263.429 233.528 244.677C214.786 225.925 189.363 215.383 162.85 215.37V215.37ZM162.85 401.99C145.706 401.99 128.947 396.906 114.694 387.38C100.44 377.854 89.331 364.315 82.7726 348.476C76.2142 332.636 74.5008 315.207 77.849 298.393C81.1973 281.579 89.4567 266.136 101.583 254.017C113.709 241.898 129.157 233.648 145.972 230.309C162.788 226.971 180.216 228.694 196.052 235.262C211.888 241.829 225.42 252.946 234.938 267.205C244.455 281.465 249.53 298.226 249.52 315.37C249.517 338.355 240.385 360.397 224.131 376.649C207.878 392.9 185.835 402.03 162.85 402.03V401.99Z" fill="black"/>
<path d="M600.37 486.05C600.37 486.05 602.73 507.28 607.84 515.53C608.497 517.723 609.021 519.954 609.41 522.21C609.41 522.21 610.59 536.75 612.16 541.07C613.73 545.39 614.91 557.19 614.91 557.19C614.91 557.19 620.41 563.47 622.38 558.37C621.143 551.632 620.746 544.766 621.2 537.93C621.2 537.93 621.59 531.25 619.63 526.53C619.192 524.063 619.192 521.537 619.63 519.07C620.41 515.92 616.48 500.6 616.48 500.6L613.34 485.27L600.37 486.05Z" fill="#BE6F72"/>
<path d="M625.13 562.3C625.13 562.3 622.77 566.62 609.02 568.19C601.88 569 601.83 567.71 603.44 566.27C604.805 565.185 606.279 564.247 607.84 563.47C607.84 563.47 612.95 559.94 613.73 557.58C614.51 555.22 617.27 557.19 617.27 557.19C621.2 563.08 621.99 555.61 622.77 556.4C623.553 557.719 624.161 559.134 624.58 560.61C624.91 561.56 625.13 562.3 625.13 562.3Z" fill="#FF6F61"/>
<path opacity="0.1" d="M625.13 562.3C625.13 562.3 622.77 566.62 609.02 568.19C601.88 569 601.83 567.71 603.44 566.27C604.56 566.98 606.82 567.27 611.37 565.44C617.92 562.76 622.67 561.21 624.58 560.61C624.91 561.56 625.13 562.3 625.13 562.3Z" fill="black"/>
<path opacity="0.1" d="M621.2 537.93C621.2 537.93 621.59 531.25 619.63 526.53C619.192 524.063 619.192 521.537 619.63 519.07C620.41 515.92 616.48 500.6 616.48 500.6L613.34 485.27L610.62 485.43L613.73 500.6C613.73 500.6 617.66 515.92 616.88 519.07C616.442 521.537 616.442 524.063 616.88 526.53C618.88 531.25 618.45 537.93 618.45 537.93C617.996 544.766 618.393 551.632 619.63 558.37C619.417 559.01 619.021 559.573 618.49 559.99C619.95 560.65 621.49 560.62 622.38 558.37C621.143 551.632 620.746 544.766 621.2 537.93V537.93Z" fill="black"/>
<path d="M618.64 399.79C616.018 399.785 613.447 400.516 611.22 401.9C608.28 401.221 605.196 401.558 602.472 402.857C599.748 404.155 597.544 406.338 596.22 409.05C594.571 410.61 593.266 412.498 592.389 414.592C591.513 416.686 591.084 418.94 591.13 421.21C591.13 429.57 596.76 436.34 603.7 436.34C608.7 436.34 613.08 432.78 615.09 427.63C616.245 427.936 617.435 428.091 618.63 428.09C622.383 428.09 625.982 426.599 628.636 423.946C631.289 421.292 632.78 417.693 632.78 413.94C632.78 410.187 631.289 406.588 628.636 403.934C625.982 401.281 622.383 399.79 618.63 399.79H618.64Z" fill="#3F3D56"/>
<path d="M630.24 488.02L631.42 491.16C631.42 491.16 632.6 511.99 632.2 513.96C631.8 515.93 633.78 522.96 633.78 522.96C636.321 529.998 637.261 537.513 636.53 544.96L636.92 555.96C636.92 555.96 638.49 560.28 637.71 561.07C636.93 561.86 631 560.37 631 560.37C631 560.37 631.79 552.12 629 547.01C626.21 541.9 624.68 528.93 624.68 528.93C624.68 528.93 620.75 521.07 620.75 517.93C620.75 514.79 614.46 489.24 614.46 489.24L630.24 488.02Z" fill="#BE6F72"/>
<path d="M599.58 487.63C599.58 487.63 599.98 473.48 601.58 469.16C602.394 467.141 602.981 465.038 603.33 462.89C603.33 462.89 627.12 467.19 629.09 465.62C629.09 465.62 629.48 471.12 629.88 471.51C630.28 471.9 631.88 481.73 631.45 486.45C631.02 491.17 631.45 491.16 631.45 491.16C631.45 491.16 615.33 493.52 614.94 491.16C614.55 488.8 613.37 488.81 613.37 488.81C613.37 488.81 598.8 488.37 599.58 487.63Z" fill="#3F3D56"/>
<g opacity="0.1">
<path opacity="0.1" d="M612.55 487.63C612.55 487.63 602.61 487.36 599.61 486.82C599.61 487.33 599.61 487.63 599.61 487.63C598.83 488.41 613.37 488.81 613.37 488.81C613.568 488.828 613.756 488.905 613.91 489.03C613.38 487.63 612.55 487.63 612.55 487.63Z" fill="black"/>
<path opacity="0.1" d="M629.85 471.51C629.45 471.12 629.06 465.62 629.06 465.62C628.856 465.747 628.628 465.828 628.39 465.86C628.53 467.52 628.8 470.07 629.06 470.33C629.32 470.59 631.06 480.55 630.63 485.27C630.2 489.99 630.63 489.98 630.63 489.98C630.63 489.98 617.88 491.85 614.79 490.6C614.79 490.77 614.88 490.96 614.91 491.16C615.3 493.52 631.42 491.16 631.42 491.16C631.42 491.16 631.02 491.16 631.42 486.45C631.82 481.74 630.24 471.91 629.85 471.51Z" fill="black"/>
</g>
<path d="M616.9 424.55C617.239 425.307 617.753 425.972 618.4 426.49C618.817 426.8 619.299 427.008 619.81 427.1C618.93 427.61 617.97 427.99 617.09 428.5C615.706 429.43 614.371 430.432 613.09 431.5C611.78 432.553 610.177 433.175 608.5 433.28C609.089 432.487 609.458 431.552 609.57 430.571C609.682 429.59 609.534 428.596 609.14 427.69C608.78 427.096 608.542 426.437 608.44 425.75C608.44 424.62 609.44 423.75 610.37 423.15C611.12 422.64 611.89 422.15 612.67 421.66C613.28 421.28 614.2 420.48 614.97 420.51C615.74 420.54 615.83 421.22 615.97 421.92C616.168 422.832 616.481 423.716 616.9 424.55V424.55Z" fill="#BE6F72"/>
<path opacity="0.1" d="M616.9 424.55C617.239 425.307 617.753 425.972 618.4 426.49C618.817 426.8 619.299 427.008 619.81 427.1C618.93 427.61 617.97 427.99 617.09 428.5C615.706 429.43 614.371 430.432 613.09 431.5C611.78 432.553 610.177 433.175 608.5 433.28C609.089 432.487 609.458 431.552 609.57 430.571C609.682 429.59 609.534 428.596 609.14 427.69C608.78 427.096 608.542 426.437 608.44 425.75C608.44 424.62 609.44 423.75 610.37 423.15C611.12 422.64 611.89 422.15 612.67 421.66C613.28 421.28 614.2 420.48 614.97 420.51C615.74 420.54 615.83 421.22 615.97 421.92C616.168 422.832 616.481 423.716 616.9 424.55V424.55Z" fill="black"/>
<path d="M626.11 447.74C631.103 447.74 635.15 443.693 635.15 438.7C635.15 433.707 631.103 429.66 626.11 429.66C621.117 429.66 617.07 433.707 617.07 438.7C617.07 443.693 621.117 447.74 626.11 447.74Z" fill="#BE6F72"/>
<path d="M638.88 567.01C638.88 567.8 637.31 569.76 637.31 569.76C634.117 570.152 630.878 569.747 627.88 568.58C627.09 568.19 628.27 565.83 628.27 565.83L628.36 565.64C628.72 564.714 629.223 563.851 629.85 563.08C630.63 562.3 631.1 559.08 631.1 559.08C633.54 555.08 637.87 560.81 637.87 560.81C637.87 560.81 638.42 563.81 638.71 565.63C638.81 566.28 638.88 566.81 638.88 567.01Z" fill="#FF6F61"/>
<path opacity="0.1" d="M638.88 567.01C638.88 567.8 637.31 569.76 637.31 569.76C634.117 570.152 630.878 569.747 627.88 568.58C627.09 568.19 628.27 565.83 628.27 565.83L628.36 565.64C631.038 566.884 633.969 567.486 636.92 567.4L638.71 565.61C638.81 566.28 638.88 566.81 638.88 567.01Z" fill="black"/>
<path d="M608.03 428.67C612.912 428.67 616.87 424.712 616.87 419.83C616.87 414.948 612.912 410.99 608.03 410.99C603.148 410.99 599.19 414.948 599.19 419.83C599.19 424.712 603.148 428.67 608.03 428.67Z" fill="#BE6F72"/>
<path d="M600.9 437.51C598.96 439.36 598.64 442.29 598.44 444.96L598.14 448.87C598.032 449.923 598.008 450.983 598.07 452.04C598.07 452.69 598.23 453.35 598.29 454.04C598.35 454.73 598.37 455.6 598.38 456.39V462.17C598.285 463.363 598.506 464.56 599.02 465.64C599.294 466.163 599.755 466.563 600.31 466.763C600.865 466.963 601.475 466.948 602.02 466.72C602.641 466.241 603.079 465.563 603.26 464.8C604.235 462.455 604.907 459.995 605.26 457.48C605.34 456.61 605.35 455.74 605.43 454.87C605.51 454 605.66 453.09 605.79 452.21C606.35 448.53 606.6 444.81 606.85 441.1C606.92 440 607.91 435.67 606.47 435.19C605.77 434.96 604.32 435.68 603.65 435.92C602.636 436.259 601.7 436.8 600.9 437.51V437.51Z" fill="#BE6F72"/>
<path opacity="0.1" d="M600.9 437.51C598.96 439.36 598.64 442.29 598.44 444.96L598.14 448.87C598.032 449.923 598.008 450.983 598.07 452.04C598.07 452.69 598.23 453.35 598.29 454.04C598.35 454.73 598.37 455.6 598.38 456.39V462.17C598.285 463.363 598.506 464.56 599.02 465.64C599.294 466.163 599.755 466.563 600.31 466.763C600.865 466.963 601.475 466.948 602.02 466.72C602.641 466.241 603.079 465.563 603.26 464.8C604.235 462.455 604.907 459.995 605.26 457.48C605.34 456.61 605.35 455.74 605.43 454.87C605.51 454 605.66 453.09 605.79 452.21C606.35 448.53 606.6 444.81 606.85 441.1C606.92 440 607.91 435.67 606.47 435.19C605.77 434.96 604.32 435.68 603.65 435.92C602.636 436.259 601.7 436.8 600.9 437.51V437.51Z" fill="black"/>
<path d="M619.23 425.53C619.23 425.53 612.55 430.64 608.62 431.82C608.62 431.82 606.29 434.48 605.89 435.12C605.49 435.76 604.69 442.82 603.89 444.4C603.09 445.98 601.14 449.51 603.89 453.04C603.89 453.04 604.67 456.58 604.28 457.76C603.89 458.94 602.46 463.26 603.76 463.46C605.06 463.66 609 466.4 612.53 465.62C616.06 464.84 629.24 468.62 629.24 468.62C629.24 468.62 631.42 448.37 633 444.79L629.46 443.61C629.46 443.61 619.64 437.72 625.53 428.68C625.52 428.68 620 427.5 619.23 425.53Z" fill="#FF6F61"/>
<path d="M594.84 449.2L602.96 454.95C603.063 455.026 603.187 455.066 603.315 455.066C603.443 455.066 603.567 455.026 603.67 454.95L605.87 453.3C605.938 453.242 605.992 453.17 606.029 453.089C606.066 453.007 606.086 452.919 606.086 452.83C606.086 452.741 606.066 452.653 606.029 452.571C605.992 452.49 605.938 452.418 605.87 452.36L599.62 446.81C599.539 446.736 599.439 446.686 599.332 446.665C599.224 446.644 599.113 446.652 599.01 446.69L595 448.13C594.895 448.166 594.801 448.231 594.73 448.317C594.658 448.402 594.612 448.506 594.596 448.616C594.579 448.727 594.593 448.839 594.636 448.942C594.679 449.045 594.75 449.134 594.84 449.2V449.2Z" fill="#3F3D56"/>
<path d="M597.57 466.52C596.996 464.528 596.71 462.463 596.72 460.39L596.6 457.62C596.479 456.545 596.578 455.456 596.89 454.42C597.198 453.709 597.66 453.076 598.243 452.566C598.826 452.056 599.515 451.681 600.26 451.47C601.753 451.056 603.313 450.943 604.85 451.14C605.057 451.141 605.261 451.196 605.44 451.3C605.597 451.445 605.708 451.633 605.76 451.84C605.987 452.283 606.121 452.769 606.152 453.266C606.183 453.764 606.111 454.262 605.94 454.73C605.708 455.111 605.394 455.436 605.02 455.68C603.93 456.46 602.66 456.98 601.63 457.83C601.421 457.972 601.26 458.174 601.17 458.41C601.12 458.617 601.12 458.833 601.17 459.04C601.298 459.59 601.472 460.129 601.69 460.65C601.778 460.912 601.933 461.146 602.14 461.33C602.33 461.49 602.58 461.55 602.78 461.7C603.21 462.05 604.11 462.51 604.06 463.06C603.91 465.06 602.71 467.3 602.24 469.28C601.34 473.15 598.15 468.21 597.57 466.52Z" fill="#BE6F72"/>
<g opacity="0.1">
<path opacity="0.1" d="M610.2 465.62H609.98C610.829 465.785 611.701 465.785 612.55 465.62H612.8C611.938 465.494 611.062 465.494 610.2 465.62Z" fill="black"/>
<path opacity="0.1" d="M630.83 444.2C629.42 447.37 627.34 464.54 626.97 467.95C628.35 468.31 629.26 468.57 629.26 468.57C629.26 468.57 631.42 448.37 633 444.79L630.83 444.2Z" fill="black"/>
</g>
<path d="M626.42 438.98C626.494 439.375 626.646 439.751 626.867 440.086C627.089 440.421 627.375 440.708 627.71 440.93C628.545 441.63 629.311 442.406 630 443.25C630.988 444.64 631.754 446.175 632.27 447.8C633.02 449.835 633.651 451.912 634.16 454.02C629.16 456.34 623.48 456.23 618.16 457.76C615.869 458.364 613.792 459.593 612.16 461.31C611.346 462.173 610.728 463.201 610.346 464.324C609.965 465.448 609.83 466.64 609.95 467.82C609.958 467.958 609.999 468.092 610.07 468.21C610.157 468.308 610.265 468.384 610.387 468.433C610.508 468.482 610.64 468.501 610.77 468.49C612.099 468.488 613.39 468.045 614.44 467.23C615.478 466.419 616.42 465.493 617.25 464.47C617.765 463.799 618.458 463.287 619.25 462.99C622.14 462.11 625.25 462.16 628.25 462.11C632.737 462.022 637.215 461.668 641.66 461.05C641.822 461.069 641.987 461.052 642.141 460.998C642.295 460.945 642.436 460.857 642.551 460.741C642.667 460.626 642.755 460.485 642.808 460.331C642.862 460.177 642.879 460.012 642.86 459.85C643.3 453.95 641.11 448.19 638.86 442.72C637.96 440.527 637.033 438.343 636.08 436.17C635.295 434.046 634.144 432.077 632.68 430.35C632.124 429.722 631.443 429.218 630.68 428.87C629.82 428.56 628.914 428.391 628 428.37C626.545 428.174 625.071 428.147 623.61 428.29C623.377 429.026 623.236 429.789 623.19 430.56C623.27 433.26 624.45 435.79 625.61 438.23C625.76 438.6 626.19 438.62 626.42 438.98Z" fill="#BE6F72"/>
<path opacity="0.1" d="M610.41 444.04C609.733 445.198 609.388 446.519 609.41 447.86C609.412 448.39 609.497 448.916 609.66 449.42C609.933 450.127 610.361 450.764 610.914 451.283C611.466 451.802 612.127 452.191 612.85 452.42" stroke="black" stroke-miterlimit="10"/>
<path d="M615.5 411.19C615.007 411.188 614.518 411.266 614.05 411.42C612.74 409.42 609.66 408.04 606.05 408.04C601.27 408.04 597.4 410.51 597.4 413.55C597.4 416.59 601.27 419.05 606.05 419.05C607.84 419.069 609.612 418.694 611.24 417.95C611.606 418.708 612.169 419.353 612.869 419.82C613.569 420.286 614.382 420.557 615.222 420.603C616.062 420.649 616.899 420.469 617.646 420.082C618.394 419.696 619.023 419.115 619.471 418.403C619.918 417.69 620.166 416.87 620.189 416.029C620.212 415.188 620.009 414.356 619.602 413.62C619.194 412.884 618.597 412.27 617.872 411.843C617.148 411.415 616.321 411.19 615.48 411.19H615.5Z" fill="#3F3D56"/>
<path opacity="0.1" d="M615.89 419.44C615.003 419.44 614.135 419.19 613.385 418.717C612.634 418.245 612.033 417.57 611.65 416.77C610.022 417.514 608.25 417.889 606.46 417.87C601.69 417.87 597.82 415.41 597.82 412.37C597.805 412.187 597.805 412.003 597.82 411.82C597.535 412.353 597.384 412.946 597.38 413.55C597.38 416.55 601.25 419.05 606.03 419.05C607.82 419.069 609.592 418.694 611.22 417.95C611.651 418.843 612.352 419.577 613.224 420.048C614.097 420.519 615.095 420.703 616.078 420.573C617.061 420.444 617.978 420.007 618.698 419.326C619.419 418.645 619.906 417.754 620.09 416.78C619.71 417.572 619.114 418.242 618.371 418.712C617.629 419.183 616.769 419.435 615.89 419.44V419.44Z" fill="black"/>
<path opacity="0.1" d="M596.23 411.37C597.554 408.658 599.758 406.475 602.482 405.177C605.206 403.878 608.29 403.541 611.23 404.22C613.287 402.95 615.636 402.228 618.052 402.124C620.468 402.021 622.87 402.538 625.029 403.628C627.188 404.717 629.031 406.342 630.383 408.347C631.735 410.352 632.55 412.67 632.75 415.08C632.75 414.69 632.75 414.3 632.75 413.9C632.745 411.385 632.068 408.917 630.791 406.75C629.514 404.584 627.682 402.797 625.484 401.574C623.286 400.351 620.802 399.737 618.288 399.794C615.773 399.851 613.32 400.578 611.18 401.9C608.24 401.221 605.156 401.558 602.432 402.857C599.708 404.155 597.504 406.338 596.18 409.05C594.531 410.61 593.226 412.498 592.349 414.592C591.473 416.686 591.044 418.94 591.09 421.21C591.09 421.61 591.09 422 591.09 422.39C591.286 418.183 593.133 414.224 596.23 411.37Z" fill="black"/>
<path d="M686.39 414.37C689 409.54 686.04 403.61 682.63 399.3C679.22 394.99 675.08 390.51 675.17 385.01C675.29 377.12 683.67 372.46 690.37 368.27C695.337 365.157 699.916 361.465 704.01 357.27C705.73 355.663 707.152 353.763 708.21 351.66C709.59 348.57 709.55 345.06 709.47 341.66C709.177 330.393 708.62 319.14 707.8 307.9" stroke="#3F3D56" stroke-width="4" stroke-miterlimit="10"/>
<path d="M720.52 307.3C720.425 305.24 719.812 303.236 718.739 301.475C717.666 299.713 716.167 298.25 714.38 297.22L711.62 302.67L711.7 296.07C710.388 295.678 709.018 295.513 707.65 295.58C705.218 295.693 702.874 296.526 700.915 297.971C698.955 299.417 697.469 301.411 696.643 303.701C695.817 305.992 695.689 308.476 696.275 310.839C696.861 313.202 698.135 315.339 699.935 316.978C701.735 318.618 703.981 319.686 706.389 320.049C708.797 320.412 711.258 320.053 713.461 319.017C715.665 317.981 717.511 316.315 718.768 314.229C720.024 312.143 720.634 309.732 720.52 307.3V307.3Z" fill="#FCB544"/>
<path d="M698.57 390.63C697.279 393.141 695.163 395.133 692.578 396.269C689.994 397.406 687.096 397.62 684.373 396.875C681.649 396.129 679.264 394.47 677.619 392.175C675.973 389.88 675.166 387.089 675.334 384.27C675.502 381.452 676.633 378.776 678.539 376.692C680.445 374.609 683.01 373.244 685.803 372.827C688.596 372.409 691.447 372.965 693.879 374.4C696.311 375.835 698.176 378.063 699.16 380.71L691.47 386.97L699.93 384.97C699.938 386.939 699.472 388.88 698.57 390.63V390.63Z" fill="#FCB544"/>
<path d="M692.49 366.72C689.468 366.865 686.498 365.893 684.148 363.987C681.797 362.082 680.231 359.378 679.747 356.392C679.263 353.405 679.897 350.345 681.526 347.795C683.155 345.246 685.666 343.386 688.58 342.57L688.52 347.64L691.31 342.13C694.572 341.981 697.759 343.132 700.172 345.332C702.586 347.531 704.027 350.598 704.18 353.86C704.257 355.475 704.014 357.089 703.466 358.61C702.919 360.131 702.077 361.529 700.988 362.725C699.9 363.92 698.586 364.889 697.123 365.576C695.659 366.263 694.075 366.656 692.46 366.73L692.49 366.72Z" fill="#FCB544"/>
<path d="M722.37 346.84C720.462 346.937 718.557 346.589 716.807 345.822C715.056 345.056 713.508 343.893 712.285 342.424C711.062 340.956 710.198 339.223 709.761 337.363C709.323 335.503 709.325 333.567 709.766 331.708C710.206 329.848 711.074 328.117 712.299 326.651C713.525 325.185 715.074 324.024 716.826 323.261C718.578 322.498 720.483 322.152 722.391 322.253C724.3 322.353 726.158 322.897 727.82 323.84L725.64 329.84L730.12 325.54C731.314 326.624 732.281 327.932 732.968 329.391C733.654 330.85 734.046 332.43 734.12 334.04C734.18 335.179 734.076 336.321 733.81 337.43C733.183 340.028 731.728 342.351 729.664 344.048C727.6 345.746 725.04 346.726 722.37 346.84V346.84Z" fill="#FCB544"/>
<path opacity="0.1" d="M718.87 310.58C716.03 310.9 713.26 311.78 710.41 311.96C707.56 312.14 704.41 311.45 702.62 309.23C701.784 307.943 701.026 306.608 700.35 305.23C699.57 304.019 698.506 303.016 697.25 302.31C696.452 303.871 695.997 305.584 695.914 307.334C695.831 309.085 696.124 310.833 696.771 312.462C697.419 314.091 698.407 315.562 699.669 316.779C700.931 317.995 702.438 318.927 704.09 319.514C705.742 320.101 707.499 320.328 709.246 320.18C710.992 320.033 712.687 319.514 714.217 318.659C715.747 317.804 717.077 316.632 718.117 315.221C719.157 313.811 719.885 312.194 720.25 310.48C719.79 310.5 719.33 310.53 718.87 310.58Z" fill="black"/>
<path opacity="0.1" d="M722.37 346.84C720.248 346.938 718.138 346.485 716.243 345.526C714.347 344.568 712.732 343.135 711.554 341.368C710.376 339.601 709.674 337.56 709.518 335.442C709.361 333.324 709.754 331.201 710.66 329.28C711.639 329.935 712.481 330.774 713.14 331.75C713.871 333.154 714.686 334.514 715.58 335.82C717.49 338.08 720.77 338.82 723.74 338.68C726.71 338.54 729.58 337.68 732.54 337.43C732.95 337.43 733.37 337.36 733.78 337.35C733.169 339.958 731.725 342.295 729.666 344.008C727.607 345.72 725.045 346.715 722.37 346.84V346.84Z" fill="black"/>
<path opacity="0.1" d="M692.49 366.72C690.386 366.823 688.291 366.384 686.405 365.445C684.519 364.505 682.906 363.097 681.721 361.356C680.536 359.614 679.817 357.598 679.635 355.499C679.453 353.4 679.813 351.29 680.68 349.37C681.689 350.041 682.57 350.888 683.28 351.87C684.28 353.22 684.83 354.78 685.95 356.02C688.03 358.34 691.52 359.15 694.67 359.08C697.82 359.01 700.67 358.26 703.67 358.03C702.928 360.453 701.455 362.588 699.455 364.143C697.454 365.699 695.021 366.598 692.49 366.72V366.72Z" fill="black"/>
<path opacity="0.1" d="M698.57 390.63C697.102 393.377 694.648 395.465 691.702 396.476C688.756 397.486 685.537 397.344 682.692 396.076C679.847 394.809 677.587 392.511 676.368 389.646C675.149 386.78 675.06 383.559 676.12 380.63C677.136 381.293 678.046 382.105 678.82 383.04C680 384.47 680.77 386.04 682.12 387.42C684.64 389.89 688.7 390.9 692.32 391C694.409 390.998 696.496 390.874 698.57 390.63V390.63Z" fill="black"/>
<path d="M845.39 566.37C848 561.54 845.04 555.61 841.63 551.3C838.22 546.99 834.08 542.51 834.17 537.01C834.29 529.12 842.67 524.46 849.37 520.27C854.337 517.157 858.916 513.465 863.01 509.27C864.73 507.663 866.152 505.763 867.21 503.66C868.59 500.57 868.55 497.06 868.47 493.66C868.183 482.393 867.627 471.14 866.8 459.9" stroke="#3F3D56" stroke-width="4" stroke-miterlimit="10"/>
<path d="M879.52 459.3C879.425 457.24 878.812 455.236 877.739 453.475C876.666 451.713 875.167 450.25 873.38 449.22L870.62 454.67L870.7 448.07C869.403 447.684 868.051 447.518 866.7 447.58C864.268 447.693 861.924 448.526 859.965 449.971C858.006 451.417 856.519 453.411 855.693 455.701C854.867 457.992 854.739 460.476 855.325 462.839C855.911 465.202 857.185 467.339 858.985 468.978C860.785 470.618 863.031 471.686 865.439 472.049C867.847 472.412 870.308 472.053 872.511 471.017C874.715 469.981 876.561 468.315 877.818 466.229C879.074 464.143 879.684 461.732 879.57 459.3H879.52Z" fill="#FCB544"/>
<path d="M857.57 542.63C856.279 545.141 854.163 547.133 851.578 548.269C848.994 549.406 846.096 549.62 843.373 548.875C840.649 548.129 838.264 546.47 836.619 544.175C834.973 541.88 834.166 539.089 834.334 536.27C834.502 533.452 835.633 530.776 837.539 528.692C839.445 526.609 842.01 525.244 844.803 524.827C847.596 524.409 850.447 524.965 852.879 526.4C855.311 527.835 857.176 530.063 858.16 532.71L850.47 538.97L858.93 536.97C858.938 538.939 858.472 540.88 857.57 542.63V542.63Z" fill="#FCB544"/>
<path d="M851.49 518.72C848.468 518.865 845.498 517.893 843.148 515.988C840.797 514.082 839.23 511.378 838.747 508.392C838.263 505.405 838.897 502.345 840.526 499.795C842.155 497.246 844.666 495.386 847.58 494.57L847.52 499.64L850.31 494.13C853.572 493.981 856.759 495.132 859.172 497.332C861.586 499.531 863.027 502.598 863.18 505.86C863.257 507.475 863.014 509.089 862.466 510.61C861.919 512.131 861.076 513.529 859.988 514.725C858.899 515.92 857.586 516.889 856.123 517.576C854.659 518.264 853.075 518.656 851.46 518.73L851.49 518.72Z" fill="#FCB544"/>
<path d="M881.37 498.84C879.462 498.937 877.557 498.589 875.807 497.822C874.056 497.056 872.508 495.893 871.285 494.424C870.062 492.956 869.198 491.223 868.761 489.363C868.323 487.503 868.325 485.567 868.766 483.708C869.206 481.848 870.074 480.117 871.299 478.651C872.525 477.185 874.075 476.024 875.826 475.261C877.578 474.498 879.483 474.152 881.392 474.253C883.3 474.354 885.158 474.897 886.82 475.84L884.64 481.84L889.12 477.54C890.314 478.624 891.282 479.932 891.968 481.391C892.654 482.85 893.046 484.43 893.12 486.04C893.18 487.179 893.076 488.321 892.81 489.43C892.183 492.028 890.728 494.351 888.664 496.048C886.6 497.746 884.04 498.726 881.37 498.84V498.84Z" fill="#FCB544"/>
<path opacity="0.1" d="M877.87 462.58C875.03 462.9 872.26 463.78 869.41 463.96C866.56 464.14 863.41 463.45 861.62 461.23C860.784 459.943 860.026 458.608 859.35 457.23C858.57 456.019 857.506 455.016 856.25 454.31C855.452 455.871 854.997 457.584 854.914 459.334C854.832 461.085 855.124 462.833 855.771 464.462C856.419 466.091 857.407 467.562 858.669 468.779C859.931 469.995 861.438 470.927 863.09 471.514C864.741 472.101 866.499 472.328 868.246 472.18C869.992 472.033 871.687 471.514 873.217 470.659C874.747 469.804 876.077 468.632 877.117 467.221C878.157 465.811 878.885 464.194 879.25 462.48C878.79 462.5 878.33 462.53 877.87 462.58Z" fill="black"/>
<path opacity="0.1" d="M881.37 498.84C879.248 498.938 877.138 498.485 875.243 497.526C873.347 496.568 871.732 495.135 870.554 493.368C869.376 491.601 868.674 489.56 868.518 487.442C868.361 485.324 868.754 483.201 869.66 481.28C870.639 481.935 871.481 482.774 872.14 483.75C872.871 485.154 873.686 486.514 874.58 487.82C876.49 490.08 879.77 490.82 882.74 490.68C885.71 490.54 888.58 489.68 891.54 489.43C891.95 489.43 892.37 489.36 892.78 489.35C892.169 491.958 890.725 494.295 888.666 496.008C886.607 497.72 884.045 498.715 881.37 498.84Z" fill="black"/>
<path opacity="0.1" d="M851.49 518.72C849.386 518.823 847.291 518.384 845.405 517.445C843.519 516.505 841.906 515.097 840.721 513.356C839.536 511.614 838.817 509.598 838.635 507.499C838.453 505.4 838.813 503.29 839.68 501.37C840.689 502.041 841.57 502.888 842.28 503.87C843.28 505.22 843.83 506.78 844.95 508.02C847.03 510.34 850.52 511.15 853.67 511.08C856.82 511.01 859.67 510.26 862.67 510.03C861.928 512.453 860.456 514.588 858.455 516.143C856.454 517.699 854.021 518.598 851.49 518.72Z" fill="black"/>
<path opacity="0.1" d="M857.57 542.63C856.102 545.377 853.648 547.465 850.702 548.476C847.756 549.486 844.537 549.344 841.692 548.076C838.847 546.809 836.587 544.511 835.368 541.646C834.149 538.78 834.06 535.559 835.12 532.63C836.136 533.293 837.046 534.105 837.82 535.04C839 536.47 839.82 538.04 841.12 539.42C843.64 541.89 847.7 542.9 851.32 543C853.409 542.998 855.496 542.874 857.57 542.63V542.63Z" fill="black"/>
<path d="M265.35 438.25L267.53 438.69L274.96 449.68L271.69 450.12L265.35 438.25Z" fill="#2F2E41"/>
<path d="M212.49 482.83C213.081 484.769 213.81 486.664 214.67 488.5C217.132 487.98 219.555 487.288 221.92 486.43C221.454 485.736 220.95 485.069 220.41 484.43C219.823 483.792 219.129 483.26 218.36 482.86C217.54 482.675 216.69 482.675 215.87 482.86C214.75 482.83 213.62 482.85 212.49 482.83Z" fill="#FBBEBE"/>
<path d="M218.37 485.76C217.779 485.495 217.251 485.106 216.823 484.62C216.395 484.133 216.077 483.56 215.89 482.94C215.509 481.694 214.864 480.545 214 479.57C213.818 479.595 213.645 479.666 213.498 479.776C213.351 479.886 213.235 480.032 213.16 480.2C212.98 480.52 212.87 480.88 212.67 481.2C212.27 481.77 211.57 482.05 211.07 482.53C210.57 483.01 210.27 483.76 209.73 484.25C208.988 484.797 208.116 485.142 207.2 485.25C205.808 485.564 204.464 486.058 203.2 486.72C202.737 486.997 202.244 487.218 201.73 487.38C201.16 487.465 200.58 487.465 200.01 487.38L196.07 487.1C195.739 487.046 195.401 487.046 195.07 487.1C194.668 487.245 194.326 487.521 194.099 487.884C193.873 488.247 193.774 488.675 193.82 489.1C193.867 489.522 194.002 489.929 194.218 490.294C194.433 490.66 194.724 490.975 195.07 491.22C195.754 491.711 196.51 492.096 197.31 492.36C200.74 493.652 204.273 494.655 207.87 495.36V496.14C210.375 497.37 213.129 498.009 215.92 498.01C216.125 498.022 216.33 497.988 216.52 497.91C216.775 497.719 216.953 497.442 217.02 497.13C217.968 494.368 218.523 491.486 218.67 488.57C218.734 487.829 218.677 487.082 218.5 486.36C218.28 485.65 219.02 485.95 218.34 485.67" fill="#2F2E41"/>
<path d="M293.93 470.91C282.25 471.61 270.71 468.19 259.01 467.83C257.558 467.734 256.099 467.825 254.67 468.1C253.182 468.504 251.74 469.063 250.37 469.77C244.1 472.69 237.61 475.11 231.13 477.52L223.68 480.29C222.231 480.945 220.66 481.285 219.07 481.29C218.36 481.29 217.49 481.14 217.07 481.73C215.86 483.53 216.43 486.16 217.23 488.18C217.49 488.83 217.93 489.54 218.63 489.61C219.121 489.577 219.602 489.455 220.05 489.25C221.4 488.89 222.75 489.8 224.15 489.95C225.87 490.13 227.47 489.15 229.1 488.55C231.8 487.55 234.74 487.55 237.58 487.11C242.33 486.32 246.74 484.11 250.86 481.6C252.358 480.532 254.034 479.74 255.81 479.26C257.914 479.012 260.046 479.255 262.04 479.97C266.886 481.337 271.656 482.96 276.33 484.83C278.76 485.888 281.251 486.799 283.79 487.56C289.332 489.01 295.191 488.66 300.52 486.56C302.39 485.82 304.42 484.56 304.52 482.5C304.59 481.35 303.69 480.34 303.1 479.35C302.72 478.72 302.33 478.09 301.92 477.48C299.92 474.58 297.48 470.7 293.93 470.91Z" fill="#2F2E41"/>
<path opacity="0.1" d="M293.93 470.91C282.25 471.61 270.71 468.19 259.01 467.83C257.558 467.734 256.099 467.825 254.67 468.1C253.182 468.504 251.74 469.063 250.37 469.77C244.1 472.69 237.61 475.11 231.13 477.52L223.68 480.29C222.231 480.945 220.66 481.285 219.07 481.29C218.36 481.29 217.49 481.14 217.07 481.73C215.86 483.53 216.43 486.16 217.23 488.18C217.49 488.83 217.93 489.54 218.63 489.61C219.121 489.577 219.602 489.455 220.05 489.25C221.4 488.89 222.75 489.8 224.15 489.95C225.87 490.13 227.47 489.15 229.1 488.55C231.8 487.55 234.74 487.55 237.58 487.11C242.33 486.32 246.74 484.11 250.86 481.6C252.358 480.532 254.034 479.74 255.81 479.26C257.914 479.012 260.046 479.255 262.04 479.97C266.886 481.337 271.656 482.96 276.33 484.83C278.76 485.888 281.251 486.799 283.79 487.56C289.332 489.01 295.191 488.66 300.52 486.56C302.39 485.82 304.42 484.56 304.52 482.5C304.59 481.35 303.69 480.34 303.1 479.35C302.72 478.72 302.33 478.09 301.92 477.48C299.92 474.58 297.48 470.7 293.93 470.91Z" fill="black"/>
<path d="M234.92 483.37C236.747 483.99 238.59 484.563 240.45 485.09C241.45 483.38 243.45 482.19 243.88 480.23C243.905 480.145 243.905 480.055 243.88 479.97C243.831 479.887 243.758 479.821 243.67 479.78C242.333 479.046 240.852 478.612 239.33 478.51C238.13 478.44 237.58 479.69 237.04 480.57C236.83 480.96 235.41 483.56 234.92 483.37Z" fill="#FBBEBE"/>
<path d="M237.48 482.15C236.933 482.058 236.412 481.852 235.949 481.548C235.486 481.243 235.091 480.845 234.79 480.38C234.54 479.93 234.26 479.32 233.74 479.38C233.22 479.44 233.05 479.98 232.94 480.45C232.594 482.222 232.088 483.959 231.43 485.64C230.77 487.33 229.651 488.802 228.2 489.89C227.52 490.36 226.77 490.71 226.1 491.21C225.545 491.701 224.954 492.149 224.33 492.55C223.889 492.748 223.434 492.915 222.97 493.05C222.287 493.307 221.636 493.643 221.03 494.05C220.491 494.36 220.034 494.795 219.7 495.32C219.535 495.582 219.439 495.882 219.421 496.192C219.404 496.502 219.465 496.811 219.6 497.09C219.74 497.32 219.927 497.518 220.15 497.669C220.372 497.821 220.625 497.924 220.89 497.97C221.424 498.05 221.966 498.05 222.5 497.97C224.63 497.82 226.76 497.63 228.89 497.44C229.788 497.382 230.68 497.258 231.56 497.07L232.95 496.69C233.744 496.48 234.559 496.359 235.38 496.33C235.619 496.308 235.86 496.332 236.09 496.4C236.58 496.56 236.93 497.05 237.44 497.15C237.779 497.183 238.121 497.138 238.44 497.02C239.994 496.687 241.58 496.523 243.17 496.53C243.87 496.53 244.69 496.35 245.01 495.73C245.41 494.95 244.75 494.08 244.48 493.24C244.351 492.706 244.277 492.159 244.26 491.61C244.141 490.25 243.742 488.929 243.09 487.73C242.55 486.73 241.81 485.63 242.19 484.57C242.379 484.233 242.501 483.863 242.55 483.48C242.4 481.76 238.46 482.37 237.48 482.15Z" fill="#2F2E41"/>
<path d="M276.42 452.17C274.347 451.262 272.686 449.615 271.76 447.55C271.57 447.11 271.41 446.64 271.22 446.2C270.61 444.71 269.658 443.384 268.44 442.33C268.312 442.194 268.157 442.085 267.985 442.011C267.813 441.937 267.627 441.9 267.44 441.9C267.254 441.956 267.087 442.061 266.955 442.203C266.823 442.345 266.732 442.52 266.69 442.71C266.578 443.117 266.551 443.542 266.61 443.96C266.712 444.943 266.879 445.919 267.11 446.88L267.68 449.46C267.756 449.855 267.873 450.24 268.03 450.61C268.274 451.042 268.596 451.426 268.98 451.74C269.5 452.22 270.03 452.68 270.56 453.14C270.866 453.407 271.202 453.638 271.56 453.83C272.119 454.097 272.716 454.272 273.33 454.35C275.716 454.661 277.993 455.538 279.97 456.91C279.97 456.91 279.97 455.18 279.97 454.99C279.945 454.487 279.771 454.004 279.47 453.6C278.554 452.933 277.519 452.447 276.42 452.17V452.17Z" fill="#FBBEBE"/>
<path opacity="0.1" d="M276.42 452.17C274.347 451.262 272.686 449.615 271.76 447.55C271.57 447.11 271.41 446.64 271.22 446.2C270.61 444.71 269.658 443.384 268.44 442.33C268.312 442.194 268.157 442.085 267.985 442.011C267.813 441.937 267.627 441.9 267.44 441.9C267.254 441.956 267.087 442.061 266.955 442.203C266.823 442.345 266.732 442.52 266.69 442.71C266.578 443.117 266.551 443.542 266.61 443.96C266.712 444.943 266.879 445.919 267.11 446.88L267.68 449.46C267.756 449.855 267.873 450.24 268.03 450.61C268.274 451.042 268.596 451.426 268.98 451.74C269.5 452.22 270.03 452.68 270.56 453.14C270.866 453.407 271.202 453.638 271.56 453.83C272.119 454.097 272.716 454.272 273.33 454.35C275.716 454.661 277.993 455.538 279.97 456.91C279.97 456.91 279.97 455.18 279.97 454.99C279.945 454.487 279.771 454.004 279.47 453.6C278.554 452.933 277.519 452.447 276.42 452.17V452.17Z" fill="black"/>
<path d="M300.2 432.43C301.769 432.43 303.04 431.15 303.04 429.57C303.04 427.99 301.769 426.71 300.2 426.71C298.632 426.71 297.36 427.99 297.36 429.57C297.36 431.15 298.632 432.43 300.2 432.43Z" fill="#2F2E41"/>
<path d="M298.44 427.85C297.68 427.668 296.879 427.782 296.2 428.17C295.872 428.462 295.61 428.82 295.43 429.22C294.794 430.314 294.297 431.483 293.95 432.7C293.7 433.7 293.66 434.83 293.34 435.86C292.76 437.76 291.27 439.37 291.1 441.35C291.02 442.24 291.17 443.28 290.52 443.88C290.361 444.018 290.19 444.141 290.01 444.25C289.56 444.55 289.178 444.942 288.89 445.4C288.694 445.808 288.427 446.177 288.1 446.49C287.52 446.92 286.56 446.88 286.28 447.49C286 448.1 286.73 448.93 286.56 449.65C286.39 450.37 285.76 450.51 285.31 450.91C284.78 451.47 284.407 452.16 284.23 452.91C283.28 453.093 282.301 453.067 281.361 452.834C280.422 452.601 279.545 452.166 278.79 451.56C279.45 453.564 279.738 455.672 279.64 457.78C279.69 458.117 279.671 458.461 279.585 458.791C279.499 459.121 279.348 459.43 279.14 459.7C281.396 459.868 283.63 460.256 285.81 460.86C286.754 461.175 287.776 461.175 288.72 460.86C289.226 460.589 289.679 460.23 290.06 459.8C291.26 458.58 292.52 457.25 292.81 455.56C292.882 454.605 292.898 453.647 292.86 452.69C292.974 451.503 293.219 450.333 293.59 449.2C294.223 446.849 294.648 444.446 294.86 442.02C294.99 440.52 296.29 439.32 296.97 438.02C298.25 435.49 299.57 432.86 299.66 430.02C299.7 429.1 299.38 427.95 298.44 427.85Z" fill="#2F2E41"/>
<path opacity="0.1" d="M298.44 427.85C297.68 427.668 296.879 427.782 296.2 428.17C295.872 428.462 295.61 428.82 295.43 429.22C294.794 430.314 294.297 431.483 293.95 432.7C293.7 433.7 293.66 434.83 293.34 435.86C292.76 437.76 291.27 439.37 291.1 441.35C291.02 442.24 291.17 443.28 290.52 443.88C290.361 444.018 290.19 444.141 290.01 444.25C289.56 444.55 289.178 444.942 288.89 445.4C288.694 445.808 288.427 446.177 288.1 446.49C287.52 446.92 286.56 446.88 286.28 447.49C286 448.1 286.73 448.93 286.56 449.65C286.39 450.37 285.76 450.51 285.31 450.91C284.78 451.47 284.407 452.16 284.23 452.91C283.28 453.093 282.301 453.067 281.361 452.834C280.422 452.601 279.545 452.166 278.79 451.56C279.45 453.564 279.738 455.672 279.64 457.78C279.69 458.117 279.671 458.461 279.585 458.791C279.499 459.121 279.348 459.43 279.14 459.7C281.396 459.868 283.63 460.256 285.81 460.86C286.754 461.175 287.776 461.175 288.72 460.86C289.226 460.589 289.679 460.23 290.06 459.8C291.26 458.58 292.52 457.25 292.81 455.56C292.882 454.605 292.898 453.647 292.86 452.69C292.974 451.503 293.219 450.333 293.59 449.2C294.223 446.849 294.648 444.446 294.86 442.02C294.99 440.52 296.29 439.32 296.97 438.02C298.25 435.49 299.57 432.86 299.66 430.02C299.7 429.1 299.38 427.95 298.44 427.85Z" fill="black"/>
<path d="M295.78 473.37C293.35 472.21 291.57 470.06 289.6 468.21C285.85 464.68 281.26 462.21 277.31 458.88C274.69 456.69 272.31 454.14 269.48 452.3C266.945 450.693 264.074 449.69 261.09 449.37C260.761 449.294 260.419 449.294 260.09 449.37C259.712 449.531 259.384 449.79 259.14 450.12C257.865 451.559 256.73 453.116 255.75 454.77C250.75 463.27 243.64 470.41 237.75 478.31C237.615 478.474 237.516 478.665 237.46 478.87C237.435 479.176 237.513 479.482 237.68 479.74L238.88 482.08C239.55 483.4 240.63 484.93 242.07 484.67C242.718 484.482 243.299 484.111 243.74 483.6L249.12 478.45L254.76 473.06C258.06 469.91 261.42 466.68 263.58 462.64C265.26 465.56 268.25 467.47 270.29 470.14C271.07 471.14 271.71 472.27 272.41 473.35C273.52 475.07 274.79 476.69 276.05 478.35L282.52 486.6C283.34 487.765 284.355 488.78 285.52 489.6C287.115 490.468 288.894 490.945 290.71 490.99C293.14 491.207 295.58 491.293 298.02 491.25C299.888 491.325 301.75 490.984 303.47 490.25C304.327 489.873 305.06 489.26 305.582 488.483C306.104 487.706 306.395 486.796 306.42 485.86C306.32 484.891 306.002 483.958 305.49 483.13C303.15 478.96 300.13 475.44 295.78 473.37Z" fill="#2F2E41"/>
<path d="M301.95 433.75C303.16 433.75 304.14 432.765 304.14 431.55C304.14 430.335 303.16 429.35 301.95 429.35C300.741 429.35 299.76 430.335 299.76 431.55C299.76 432.765 300.741 433.75 301.95 433.75Z" fill="#E8E8F0"/>
<path d="M301.47 429.9C301.959 430.882 302.045 432.016 301.71 433.06C301.365 434.086 300.891 435.063 300.3 435.97C299.792 436.904 299.178 437.776 298.47 438.57C301.85 438.73 305.12 437.41 308.09 435.81C310.49 434.52 312.88 432.93 314.16 430.52C313.778 430.611 313.381 430.621 312.995 430.548C312.609 430.476 312.243 430.323 311.92 430.1C311.275 429.656 310.699 429.121 310.21 428.51L308.52 426.61C308.137 426.192 307.801 425.732 307.52 425.24C307.149 424.566 306.992 423.795 307.07 423.03C306.396 423.733 305.645 424.357 304.83 424.89C303.62 425.68 302.29 426.25 301.07 427.03C300.65 427.31 299.69 427.75 299.94 428.31C300.19 428.87 301.13 429.3 301.47 429.9Z" fill="#FBBEBE"/>
<path opacity="0.1" d="M301.47 429.9C301.959 430.882 302.045 432.016 301.71 433.06C301.365 434.086 300.891 435.063 300.3 435.97C299.792 436.904 299.178 437.776 298.47 438.57C301.85 438.73 305.12 437.41 308.09 435.81C310.49 434.52 312.88 432.93 314.16 430.52C313.778 430.611 313.381 430.621 312.995 430.548C312.609 430.476 312.243 430.323 311.92 430.1C311.275 429.656 310.699 429.121 310.21 428.51L308.52 426.61C308.137 426.192 307.801 425.732 307.52 425.24C307.149 424.566 306.992 423.795 307.07 423.03C306.396 423.733 305.645 424.357 304.83 424.89C303.62 425.68 302.29 426.25 301.07 427.03C300.65 427.31 299.69 427.75 299.94 428.31C300.19 428.87 301.13 429.3 301.47 429.9Z" fill="black"/>
<path d="M301.51 430.23C301.168 430.712 300.984 431.289 300.984 431.88C300.984 432.471 301.168 433.048 301.51 433.53C301.61 433.65 301.97 434.4 302.12 434.41C302.194 434.404 302.265 434.383 302.33 434.349C302.396 434.314 302.453 434.267 302.5 434.21C303.269 433.408 303.984 432.556 304.64 431.66C305.31 430.766 306.273 430.136 307.36 429.88C308.707 429.829 310.031 430.242 311.11 431.05C311.612 431.279 312.053 431.621 312.4 432.05C312.641 432.491 312.785 432.979 312.82 433.48C313.147 436.498 313.274 439.535 313.2 442.57C313.257 444.762 313.114 446.954 312.77 449.12C312.55 450.23 312.23 451.32 312.08 452.45C311.963 453.445 311.916 454.448 311.94 455.45V459.63C311.913 460.397 311.967 461.164 312.1 461.92C312.3 462.83 312.73 463.68 313.02 464.57C313.319 465.592 313.523 466.64 313.63 467.7L314.2 472.02C314.38 473.38 314.52 474.87 313.69 476.02C313.32 476.51 312.83 476.91 312.45 477.4C311.04 479.24 311.45 481.87 310.9 484.12C310.437 485.767 309.481 487.233 308.16 488.32C307.689 488.786 307.122 489.143 306.498 489.366C305.874 489.589 305.209 489.672 304.55 489.61C302.79 489.28 301.74 487.45 301.26 485.72C300.78 483.99 300.61 482.11 299.57 480.65C298.616 479.545 297.487 478.603 296.23 477.86C294.958 477.106 294.023 475.893 293.62 474.47C293.51 473.84 293.62 473.19 293.51 472.55C293.416 471.745 293.108 470.979 292.617 470.334C292.126 469.688 291.471 469.186 290.72 468.88C289.82 468.53 288.72 468.4 288.2 467.58C289.487 466.774 290.426 465.514 290.83 464.05C291.228 462.596 291.443 461.097 291.47 459.59L291.77 454.59C291.91 452.34 291.97 450.12 292.96 448.1C293.4 447.2 293.96 446.35 294.41 445.46C295.02 444.209 295.538 442.916 295.96 441.59C296.68 439.53 297.4 437.47 298.04 435.39C298.29 434.38 298.673 433.408 299.18 432.5C299.72 431.56 300.5 430.43 301.51 430.23Z" fill="#E8E8F0"/>
<path d="M290.36 462.87H291.69L291.97 460.87C292.006 460.469 292.101 460.074 292.25 459.7C292.47 459.303 292.728 458.928 293.02 458.58C294.32 456.73 294.23 454.28 294.55 452.03C295.13 449.057 296.112 446.177 297.47 443.47L300.05 437.72C300.285 437.25 300.472 436.757 300.61 436.25C300.718 435.69 300.772 435.121 300.77 434.55C300.77 433.66 301.05 430.42 301.08 429.55C301.08 429.22 300.35 429.4 300.2 429.11C299.88 428.47 299.44 430.2 298.83 430.58C298.257 431.017 297.84 431.627 297.64 432.32C297.08 433.76 296.74 435.32 296.22 436.75C295.768 438.243 294.938 439.593 293.81 440.67C293.28 441.13 292.67 441.5 292.17 442C290.57 443.58 290.41 446.09 290.36 448.35C290.32 449.73 290.06 462.87 290.36 462.87Z" fill="#2F2E41"/>
<path d="M309.5 427.84C308.882 428.163 308.346 428.625 307.935 429.188C307.524 429.752 307.249 430.403 307.13 431.09C306.902 432.469 306.498 433.813 305.93 435.09C304.31 437.91 300.18 438.73 299.03 441.78C298.741 442.806 298.586 443.864 298.57 444.93C298.37 447.12 297.65 449.23 297.43 451.41C297.32 453.107 297.36 454.81 297.55 456.5L299 473.72C299.278 476.253 299.132 478.815 298.57 481.3C300.056 481.512 301.572 481.261 302.91 480.58C304.26 479.96 305.5 479.11 306.81 478.39C309.05 477.15 311.53 476.28 313.5 474.63C313.853 474.349 314.157 474.011 314.4 473.63C314.701 472.907 314.903 472.147 315 471.37C315.17 470.761 315.388 470.166 315.65 469.59C316.372 467.852 316.999 466.076 317.53 464.27C317.891 463.075 318.178 461.86 318.39 460.63C318.55 459.63 318.64 458.63 318.72 457.63C318.824 456.079 319.134 454.549 319.64 453.08C320.895 449.569 321.606 445.886 321.75 442.16C321.789 441.624 321.752 441.085 321.64 440.56C321.42 439.917 321.125 439.303 320.76 438.73C320.16 437.6 319.76 436.36 319.24 435.21C317.822 432.677 315.79 430.542 313.33 429C312.17 428.21 310.81 427.37 309.5 427.84Z" fill="#2F2E41"/>
<path d="M279.29 455.94C278.264 455.401 277.334 454.695 276.54 453.85C276.18 453.43 275.88 452.96 275.54 452.54C274.613 451.542 273.407 450.846 272.08 450.54C270.767 450.251 269.424 450.12 268.08 450.15C267.178 450.089 266.272 450.198 265.41 450.47C264.98 450.614 264.593 450.863 264.284 451.195C263.974 451.527 263.753 451.931 263.64 452.37C263.604 452.914 263.709 453.457 263.946 453.948C264.182 454.439 264.542 454.86 264.99 455.17C265.771 455.811 266.693 456.256 267.68 456.47C268.484 456.613 269.295 456.71 270.11 456.76C274.89 457.26 279.16 459.86 283.35 462.23C287.03 464.323 290.783 466.27 294.61 468.07C294.758 466.926 294.822 465.773 294.8 464.62C294.8 463.76 294.73 462.44 293.92 461.93C292.768 461.448 291.568 461.089 290.34 460.86C287.872 460.054 285.463 459.078 283.13 457.94C281.81 457.37 280.54 456.67 279.29 455.94Z" fill="#FBBEBE"/>
<path d="M300.2 428.92C304.905 428.92 308.72 425.083 308.72 420.35C308.72 415.617 304.905 411.78 300.2 411.78C295.495 411.78 291.68 415.617 291.68 420.35C291.68 425.083 295.495 428.92 300.2 428.92Z" fill="#FBBEBE"/>
<path d="M311.93 437.55C311.25 438.505 310.695 439.543 310.28 440.64C309.28 442.8 307.58 444.64 306.75 446.93C305.92 449.22 305.91 452.16 304.2 454.03C303.858 454.316 303.599 454.689 303.45 455.11C303.443 455.372 303.416 455.632 303.37 455.89C303.12 456.57 302.01 456.6 301.8 457.3C301.74 457.5 301.8 457.72 301.7 457.92C301.53 458.37 300.93 458.44 300.54 458.71C299.71 459.27 299.88 460.57 299.29 461.38C299.033 461.682 298.7 461.91 298.326 462.042C297.952 462.173 297.55 462.204 297.16 462.13C296.384 461.972 295.638 461.692 294.95 461.3C294.703 461.165 294.431 461.08 294.15 461.05C293.818 461.062 293.497 461.173 293.23 461.37C292.476 461.926 291.871 462.659 291.47 463.506C291.068 464.352 290.883 465.284 290.93 466.22C291.045 468.094 291.492 469.933 292.25 471.65C292.334 471.947 292.481 472.224 292.68 472.46C292.978 472.694 293.338 472.834 293.716 472.862C294.093 472.891 294.471 472.806 294.8 472.62C295.452 472.232 296.147 471.92 296.87 471.69C298.19 471.45 299.48 472.36 300.82 472.28C301.796 472.136 302.715 471.732 303.48 471.11C304.826 470.307 306.034 469.294 307.06 468.11C307.64 467.34 308.06 466.47 308.58 465.65C309.242 464.653 309.959 463.695 310.73 462.78L315.65 456.78C316.139 456.21 316.58 455.602 316.97 454.96C317.407 454.085 317.743 453.162 317.97 452.21C318.496 450.625 318.832 448.984 318.97 447.32C319 445.944 318.88 444.569 318.61 443.22C318.461 441.876 318.124 440.56 317.61 439.31C316.54 437.05 313.94 435.21 311.93 437.55Z" fill="#2F2E41"/>
<path d="M329.05 426.37C329.057 424.851 328.704 423.352 328.019 421.996C327.334 420.64 326.337 419.466 325.11 418.57C325.07 415.871 324.074 413.274 322.3 411.24C320.526 409.206 318.088 407.867 315.42 407.46C314.907 404.901 313.507 402.606 311.466 400.979C309.425 399.352 306.875 398.499 304.267 398.57C301.658 398.64 299.158 399.63 297.208 401.365C295.258 403.099 293.984 405.467 293.61 408.05C290.07 407.25 286.83 408.29 286.24 410.47C285.65 412.65 288.15 415.47 291.88 416.47C293.057 416.8 294.282 416.921 295.5 416.83C296.368 418.11 297.495 419.193 298.807 420.011C300.12 420.83 301.589 421.364 303.12 421.58C303.574 423.642 304.592 425.536 306.062 427.051C307.531 428.567 309.393 429.643 311.44 430.16C312.01 431.527 312.89 432.742 314.01 433.71C314.01 433.98 314.01 434.26 314.01 434.54C314.01 435.487 314.197 436.424 314.559 437.299C314.921 438.174 315.452 438.969 316.122 439.638C316.791 440.308 317.586 440.839 318.461 441.201C319.336 441.564 320.273 441.75 321.22 441.75C322.167 441.75 323.104 441.564 323.979 441.201C324.854 440.839 325.649 440.308 326.318 439.638C326.988 438.969 327.519 438.174 327.881 437.299C328.244 436.424 328.43 435.487 328.43 434.54C328.431 433.44 328.195 432.352 327.74 431.35C328.62 429.839 329.073 428.118 329.05 426.37V426.37Z" fill="#F86D70"/>
<path opacity="0.1" d="M288.64 410.93C289.23 408.75 292.47 407.71 296.01 408.51C296.43 405.886 297.765 403.495 299.778 401.76C301.791 400.025 304.353 399.058 307.01 399.03H307.74C306.722 398.72 305.664 398.562 304.6 398.56C301.943 398.588 299.381 399.555 297.368 401.29C295.355 403.025 294.02 405.416 293.6 408.04C290.06 407.24 286.82 408.28 286.23 410.46C285.64 412.64 288.14 415.46 291.87 416.46C292.569 416.654 293.286 416.778 294.01 416.83C290.44 415.76 288.05 413.16 288.64 410.93Z" fill="black"/>
<path opacity="0.1" d="M316.37 434.96C316.355 434.687 316.355 434.413 316.37 434.14C315.244 433.177 314.363 431.96 313.8 430.59C311.751 430.075 309.886 428.999 308.416 427.481C306.946 425.963 305.929 424.065 305.48 422C303.947 421.788 302.476 421.257 301.162 420.44C299.847 419.624 298.719 418.54 297.85 417.26C297.14 417.319 296.426 417.299 295.72 417.2C296.596 418.378 297.696 419.37 298.958 420.12C300.219 420.87 301.617 421.363 303.07 421.57C303.524 423.631 304.542 425.526 306.012 427.041C307.481 428.557 309.343 429.633 311.39 430.15C311.96 431.517 312.84 432.732 313.96 433.7C313.96 433.97 313.96 434.25 313.96 434.53C313.928 436.468 314.664 438.341 316.007 439.738C317.35 441.136 319.192 441.945 321.13 441.99C319.716 441.441 318.503 440.474 317.652 439.218C316.802 437.962 316.355 436.477 316.37 434.96V434.96Z" fill="black"/>
<path d="M304.107 423.496C304.683 423.058 304.676 422.08 304.092 421.31C303.507 420.54 302.566 420.271 301.99 420.709C301.414 421.146 301.421 422.125 302.006 422.895C302.59 423.664 303.531 423.934 304.107 423.496Z" fill="#FBBEBE"/>
<path d="M831.816 324.453C802.316 327.728 778.588 351.964 775.381 381.44C772.175 412.226 789.49 439.736 815.783 450.217C817.707 450.872 819.631 449.561 819.631 446.941V436.461C819.631 436.461 817.066 437.116 813.859 437.116C804.881 437.116 801.033 429.256 800.392 424.671C799.751 422.051 798.468 420.086 796.544 418.121C794.62 417.466 793.979 417.466 793.979 416.811C793.979 415.501 795.903 415.501 796.544 415.501C800.392 415.501 803.599 420.086 804.881 422.051C808.088 427.291 811.936 428.601 813.859 428.601C816.425 428.601 818.349 427.946 819.631 427.291C820.272 422.706 822.196 418.121 826.044 415.501C811.294 412.226 800.392 403.71 800.392 389.3C800.392 382.095 803.599 374.89 808.088 369.649C807.446 368.339 806.805 365.064 806.805 360.479C806.805 357.859 806.805 354.584 808.088 351.964C808.088 350.654 809.37 349.999 810.012 349.999H810.653C813.859 350.654 820.272 352.619 826.044 358.514C829.892 357.204 834.381 356.549 838.87 356.549C843.359 356.549 847.848 357.204 851.696 358.514C857.468 352.619 864.522 350.654 867.729 349.999H868.37C869.652 349.999 870.294 350.654 870.935 351.964C870.935 354.584 870.935 357.859 870.935 360.479C870.935 365.719 870.294 368.339 869.652 369.649C874.142 374.89 877.348 381.44 877.348 389.3C877.348 403.71 866.446 412.226 851.696 415.501C855.544 418.776 858.109 424.671 858.109 430.566V447.596C858.109 449.561 860.033 451.527 862.598 450.872C886.326 441.046 903 417.466 903 389.955C903 350.654 870.294 319.868 831.816 324.453Z" fill="#FCB544"/>
</svg>
