<svg width="770" height="600" viewBox="0 0 770 600" fill="none" xmlns="http://www.w3.org/2000/svg">
<path d="M382.6 100.403C436.43 84.1483 505.119 63.1648 556.388 83.93C607.587 104.586 641.331 167.167 643.725 227.326C646.05 287.376 616.92 345.072 594.702 405.887C572.378 466.77 557.035 530.883 518.22 531.233C479.299 531.65 416.905 468.306 359.418 454.13C301.931 439.955 249.35 474.949 188.954 474.172C128.557 473.394 60.4143 436.954 56.5488 390.811C52.6832 344.669 113.27 288.865 156.257 245.389C199.35 201.845 224.912 170.737 257.32 149.407C289.727 128.076 328.769 116.659 382.6 100.403Z" fill="#1787E1"/>
</svg>
