<svg width="490" height="361" viewBox="0 0 490 361" fill="none" xmlns="http://www.w3.org/2000/svg">
<path d="M348.343 20.2131C391.443 32.0131 446.543 46.9131 472.043 81.7131C497.543 116.413 493.343 171.113 469.143 211.213C444.943 251.213 400.643 276.613 359.643 306.913C318.543 337.213 280.743 372.513 254.543 356.613C228.243 340.713 213.543 273.613 181.043 240.513C148.543 207.413 98.2426 208.313 58.0426 182.713C17.8426 157.113 -12.2574 105.113 4.94261 73.5131C22.1426 41.9131 86.7426 30.8131 134.243 20.4131C181.843 10.0131 212.343 0.413108 243.243 0.0131079C274.143 -0.386892 305.243 8.41311 348.343 20.2131Z" fill="#FAC720"/>
</svg>
